mtllib fallen_kings_sword.mtl
o Object_5
usemtl material_0
v 0.04923676598905122 0.5998736577809819 -0.08238084614276886
v -0.10558858007449179 0.5435218391670421 -0.08238084614276883
v 0.24646813113784027 0.057984946558581184 -0.08238084614276886
v 0.09164278507429731 0.0016331279446414604 -0.08238084614276883
v -0.10558858007449168 0.5435218391670421 0.08238084614276886
v 0.04923676598905127 0.5998736577809819 0.08238084614276883
v 0.09164278507429734 0.0016331279446414673 0.08238084614276886
v 0.24646813113784033 0.05798494655858119 0.08238084614276883
v -0.10558858007449168 0.5435218391670421 0.08238084614276886
v -0.10558858007449179 0.5435218391670421 -0.08238084614276883
v 0.04923676598905127 0.5998736577809819 0.08238084614276883
v 0.04923676598905122 0.5998736577809819 -0.08238084614276886
v 0.24646813113784033 0.05798494655858119 0.08238084614276883
v 0.24646813113784027 0.057984946558581184 -0.08238084614276886
v 0.09164278507429734 0.0016331279446414673 0.08238084614276886
v 0.09164278507429731 0.0016331279446414604 -0.08238084614276883
v 0.04923676598905127 0.5998736577809819 0.08238084614276883
v 0.04923676598905122 0.5998736577809819 -0.08238084614276886
v 0.24646813113784033 0.05798494655858119 0.08238084614276883
v 0.24646813113784027 0.057984946558581184 -0.08238084614276886
v -0.10558858007449179 0.5435218391670421 -0.08238084614276883
v -0.10558858007449168 0.5435218391670421 0.08238084614276886
v 0.09164278507429731 0.0016331279446414604 -0.08238084614276883
v 0.09164278507429734 0.0016331279446414673 0.08238084614276886
vt 0.140625 0.625
vt 0.15625 0.625
vt 0.140625 0.5703125
vt 0.15625 0.5703125
vt 0.3828125 0.765625
vt 0.3984375 0.765625
vt 0.3828125 0.7109375
vt 0.3984375 0.7109375
vt 0.4296875 0.796875
vt 0.4140625 0.796875
vt 0.4296875 0.8125
vt 0.4140625 0.8125
vt 0.234375 0.578125
vt 0.21875 0.578125
vt 0.234375 0.5625
vt 0.21875 0.5625
vt 0.359375 0.625
vt 0.375 0.625
vt 0.359375 0.5703125
vt 0.375 0.5703125
vt 0.1171875 0.625
vt 0.1328125 0.625
vt 0.1171875 0.5703125
vt 0.1328125 0.5703125
vn -2.0865367624096848e-16 -7.594372895402454e-17 -1
vn -2.0865367624096848e-16 -7.594372895402454e-17 -1
vn -2.0865367624096848e-16 -7.594372895402454e-17 -1
vn -2.0865367624096848e-16 -7.594372895402454e-17 -1
vn 2.0865367624096848e-16 7.594372895402454e-17 1
vn 2.0865367624096848e-16 7.594372895402454e-17 1
vn 2.0865367624096848e-16 7.594372895402454e-17 1
vn 2.0865367624096848e-16 7.594372895402454e-17 1
vn -0.3420201494184709 0.9396926185683097 2.378030989378243e-17
vn -0.3420201494184709 0.9396926185683097 2.378030989378243e-17
vn -0.3420201494184709 0.9396926185683097 2.378030989378243e-17
vn -0.3420201494184709 0.9396926185683097 2.378030989378243e-17
vn 0.3420201494184709 -0.9396926185683097 -2.378030989378243e-17
vn 0.3420201494184709 -0.9396926185683097 -2.378030989378243e-17
vn 0.3420201494184709 -0.9396926185683097 -2.378030989378243e-17
vn 0.3420201494184709 -0.9396926185683097 -2.378030989378243e-17
vn 0.9396926185683098 0.34202014941847086 -2.2763960847947466e-16
vn 0.9396926185683098 0.34202014941847086 -2.2763960847947466e-16
vn 0.9396926185683098 0.34202014941847086 -2.2763960847947466e-16
vn 0.9396926185683098 0.34202014941847086 -2.2763960847947466e-16
vn -0.9396926185683098 -0.34202014941847086 2.2763960847947466e-16
vn -0.9396926185683098 -0.34202014941847086 2.2763960847947466e-16
vn -0.9396926185683098 -0.34202014941847086 2.2763960847947466e-16
vn -0.9396926185683098 -0.34202014941847086 2.2763960847947466e-16
f 1/1/1 3/3/3 2/2/2
f 3/3/3 4/4/4 2/2/2
f 5/5/5 7/7/7 6/6/6
f 7/7/7 8/8/8 6/6/6
f 9/9/9 11/11/11 10/10/10
f 11/11/11 12/12/12 10/10/10
f 13/13/13 15/15/15 14/14/14
f 15/15/15 16/16/16 14/14/14
f 17/17/17 19/19/19 18/18/18
f 19/19/19 20/20/20 18/18/18
f 21/21/21 23/23/23 22/22/22
f 23/23/23 24/24/24 22/22/22
o Object_7
usemtl material_0
v 0.129208708713703 0.13928709069274223 -0.16476169228553786
v 0.059577404664937716 -0.010037712140754433 -0.1647616922855377
v 0.27853351154719963 0.06965578664397698 -0.16476169228553791
v 0.20890220749843433 -0.07966901618951969 -0.16476169228553775
v 0.05957740466493802 -0.010037712140754336 0.16476169228553791
v 0.1292087087137033 0.13928709069274234 0.16476169228553775
v 0.20890220749843463 -0.07966901618951958 0.16476169228553786
v 0.2785335115471999 0.06965578664397709 0.1647616922855377
v 0.05957740466493802 -0.010037712140754336 0.16476169228553791
v 0.059577404664937716 -0.010037712140754433 -0.1647616922855377
v 0.1292087087137033 0.13928709069274234 0.16476169228553775
v 0.129208708713703 0.13928709069274223 -0.16476169228553786
v 0.2785335115471999 0.06965578664397709 0.1647616922855377
v 0.27853351154719963 0.06965578664397698 -0.16476169228553791
v 0.20890220749843463 -0.07966901618951958 0.16476169228553786
v 0.20890220749843433 -0.07966901618951969 -0.16476169228553775
v 0.1292087087137033 0.13928709069274234 0.16476169228553775
v 0.129208708713703 0.13928709069274223 -0.16476169228553786
v 0.2785335115471999 0.06965578664397709 0.1647616922855377
v 0.27853351154719963 0.06965578664397698 -0.16476169228553791
v 0.059577404664937716 -0.010037712140754433 -0.1647616922855377
v 0.05957740466493802 -0.010037712140754336 0.16476169228553791
v 0.20890220749843433 -0.07966901618951969 -0.16476169228553775
v 0.20890220749843463 -0.07966901618951958 0.16476169228553786
vt 0.2421875 0.578125
vt 0.2578125 0.578125
vt 0.2421875 0.5625
vt 0.2578125 0.5625
vt 0.265625 0.578125
vt 0.28125 0.578125
vt 0.265625 0.5625
vt 0.28125 0.5625
vt 0.3046875 0.5859375
vt 0.2734375 0.5859375
vt 0.3046875 0.6015625
vt 0.2734375 0.6015625
vt 0.34375 0.6015625
vt 0.3125 0.6015625
vt 0.34375 0.5859375
vt 0.3125 0.5859375
vt 0.234375 0.6015625
vt 0.265625 0.6015625
vt 0.234375 0.5859375
vt 0.265625 0.5859375
vt 0.1953125 0.6015625
vt 0.2265625 0.6015625
vt 0.1953125 0.5859375
vt 0.2265625 0.5859375
vn -7.275317576407831e-16 -6.407428146183797e-16 -1
vn -7.275317576407831e-16 -6.407428146183797e-16 -1
vn -7.275317576407831e-16 -6.407428146183797e-16 -1
vn -7.275317576407831e-16 -6.407428146183797e-16 -1
vn 7.275317576407831e-16 6.407428146183797e-16 1
vn 7.275317576407831e-16 6.407428146183797e-16 1
vn 7.275317576407831e-16 6.407428146183797e-16 1
vn 7.275317576407831e-16 6.407428146183797e-16 1
vn -0.906307775564186 0.42261828634347715 6.876628698309953e-16
vn -0.906307775564186 0.42261828634347715 6.876628698309953e-16
vn -0.906307775564186 0.42261828634347715 6.876628698309953e-16
vn -0.906307775564186 0.42261828634347715 6.876628698309953e-16
vn 0.906307775564186 -0.42261828634347715 -6.876628698309953e-16
vn 0.906307775564186 -0.42261828634347715 -6.876628698309953e-16
vn 0.906307775564186 -0.42261828634347715 -6.876628698309953e-16
vn 0.906307775564186 -0.42261828634347715 -6.876628698309953e-16
vn 0.42261828634347715 0.906307775564186 -6.269113816579664e-16
vn 0.42261828634347715 0.906307775564186 -6.269113816579664e-16
vn 0.42261828634347715 0.906307775564186 -6.269113816579664e-16
vn 0.42261828634347715 0.906307775564186 -6.269113816579664e-16
vn -0.42261828634347715 -0.906307775564186 6.269113816579664e-16
vn -0.42261828634347715 -0.906307775564186 6.269113816579664e-16
vn -0.42261828634347715 -0.906307775564186 6.269113816579664e-16
vn -0.42261828634347715 -0.906307775564186 6.269113816579664e-16
f 25/25/25 27/27/27 26/26/26
f 27/27/27 28/28/28 26/26/26
f 29/29/29 31/31/31 30/30/30
f 31/31/31 32/32/32 30/30/30
f 33/33/33 35/35/35 34/34/34
f 35/35/35 36/36/36 34/34/34
f 37/37/37 39/39/39 38/38/38
f 39/39/39 40/40/40 38/38/38
f 41/41/41 43/43/43 42/42/42
f 43/43/43 44/44/44 42/42/42
f 45/45/45 47/47/47 46/46/46
f 47/47/47 48/48/48 46/46/46
o Object_9
usemtl material_0
v 0.14429370364759359 0.6087942299564996 -0.16476169228553772
v -0.07969350226082615 0.71324118247368 -0.16476169228553775
v 0.03984675113041313 0.38480702404807976 -0.16476169228553772
v -0.18414045477800658 0.48925397656526015 -0.16476169228553775
v -0.07969350226082624 0.71324118247368 0.1647616922855377
v 0.14429370364759347 0.6087942299564996 0.16476169228553772
v -0.18414045477800667 0.48925397656526015 0.1647616922855377
v 0.03984675113041306 0.38480702404807976 0.16476169228553772
v -0.07969350226082624 0.71324118247368 0.1647616922855377
v -0.07969350226082615 0.71324118247368 -0.16476169228553775
v 0.14429370364759347 0.6087942299564996 0.16476169228553772
v 0.14429370364759359 0.6087942299564996 -0.16476169228553772
v 0.03984675113041306 0.38480702404807976 0.16476169228553772
v 0.03984675113041313 0.38480702404807976 -0.16476169228553772
v -0.18414045477800667 0.48925397656526015 0.1647616922855377
v -0.18414045477800658 0.48925397656526015 -0.16476169228553775
v 0.14429370364759347 0.6087942299564996 0.16476169228553772
v 0.14429370364759359 0.6087942299564996 -0.16476169228553772
v 0.03984675113041306 0.38480702404807976 0.16476169228553772
v 0.03984675113041313 0.38480702404807976 -0.16476169228553772
v -0.07969350226082615 0.71324118247368 -0.16476169228553775
v -0.07969350226082624 0.71324118247368 0.1647616922855377
v -0.18414045477800658 0.48925397656526015 -0.16476169228553775
v -0.18414045477800667 0.48925397656526015 0.1647616922855377
vt 0.3828125 0.609375
vt 0.40625 0.609375
vt 0.3828125 0.5859375
vt 0.40625 0.5859375
vt 0.1640625 0.6015625
vt 0.1875 0.6015625
vt 0.1640625 0.578125
vt 0.1875 0.578125
vt 0.4140625 0.6171875
vt 0.3828125 0.6171875
vt 0.4140625 0.640625
vt 0.3828125 0.640625
vt 0.421875 1
vt 0.390625 1
vt 0.421875 0.9765625
vt 0.390625 0.9765625
vt 0.3828125 0.671875
vt 0.4140625 0.671875
vt 0.3828125 0.6484375
vt 0.4140625 0.6484375
vt 0.3828125 0.703125
vt 0.4140625 0.703125
vt 0.3828125 0.6796875
vt 0.4140625 0.6796875
vn 1.3581041693910127e-16 2.854522893059081e-17 -1
vn 1.3581041693910127e-16 2.854522893059081e-17 -1
vn 1.3581041693910127e-16 2.854522893059081e-17 -1
vn 1.3581041693910127e-16 2.854522893059081e-17 -1
vn -1.3581041693910127e-16 -2.854522893059081e-17 1
vn -1.3581041693910127e-16 -2.854522893059081e-17 1
vn -1.3581041693910127e-16 -2.854522893059081e-17 1
vn -1.3581041693910127e-16 -2.854522893059081e-17 1
vn 0.42261827195515095 0.9063077822735728 9.384010723038093e-17
vn 0.42261827195515095 0.9063077822735728 9.384010723038093e-17
vn 0.42261827195515095 0.9063077822735728 9.384010723038093e-17
vn 0.42261827195515095 0.9063077822735728 9.384010723038093e-17
vn -0.42261827195515095 -0.9063077822735728 -9.384010723038093e-17
vn -0.42261827195515095 -0.9063077822735728 -9.384010723038093e-17
vn -0.42261827195515095 -0.9063077822735728 -9.384010723038093e-17
vn -0.42261827195515095 -0.9063077822735728 -9.384010723038093e-17
vn 0.9063077822735729 -0.422618271955151 2.0124075345541679e-16
vn 0.9063077822735729 -0.422618271955151 2.0124075345541679e-16
vn 0.9063077822735729 -0.422618271955151 2.0124075345541679e-16
vn 0.9063077822735729 -0.422618271955151 2.0124075345541679e-16
vn -0.9063077822735729 0.422618271955151 -2.0124075345541679e-16
vn -0.9063077822735729 0.422618271955151 -2.0124075345541679e-16
vn -0.9063077822735729 0.422618271955151 -2.0124075345541679e-16
vn -0.9063077822735729 0.422618271955151 -2.0124075345541679e-16
f 49/49/49 51/51/51 50/50/50
f 51/51/51 52/52/52 50/50/50
f 53/53/53 55/55/55 54/54/54
f 55/55/55 56/56/56 54/54/54
f 57/57/57 59/59/59 58/58/58
f 59/59/59 60/60/60 58/58/58
f 61/61/61 63/63/63 62/62/62
f 63/63/63 64/64/64 62/62/62
f 65/65/65 67/67/67 66/66/66
f 67/67/67 68/68/68 66/66/66
f 69/69/69 71/71/71 70/70/70
f 71/71/71 72/72/72 70/70/70
o Object_13
usemtl material_0
v -0.7460171515767022 3.2151591959266255 -0.1075346595085369
v -0.7460171515767022 3.2151591959266255 0.05722703277700096
v -1.4141299884794734 2.6029465708356727 -0.10753465950853701
v -1.4141299884794734 2.6029465708356727 0.05722703277700085
v -0.6347057651965289 3.093684134671576 0.05722703277700096
v -0.6347057651965289 3.093684134671576 -0.1075346595085369
v -1.3028186020993 2.481471509580623 0.05722703277700085
v -1.3028186020993 2.481471509580623 -0.10753465950853701
v -0.6347057651965289 3.093684134671576 0.05722703277700096
v -0.7460171515767022 3.2151591959266255 0.05722703277700096
v -0.6347057651965289 3.093684134671576 -0.1075346595085369
v -0.7460171515767022 3.2151591959266255 -0.1075346595085369
v -1.3028186020993 2.481471509580623 -0.10753465950853701
v -1.4141299884794734 2.6029465708356727 -0.10753465950853701
v -1.3028186020993 2.481471509580623 0.05722703277700085
v -1.4141299884794734 2.6029465708356727 0.05722703277700085
v -0.6347057651965289 3.093684134671576 -0.1075346595085369
v -0.7460171515767022 3.2151591959266255 -0.1075346595085369
v -1.3028186020993 2.481471509580623 -0.10753465950853701
v -1.4141299884794734 2.6029465708356727 -0.10753465950853701
v -0.7460171515767022 3.2151591959266255 0.05722703277700096
v -0.6347057651965289 3.093684134671576 0.05722703277700096
v -1.4141299884794734 2.6029465708356727 0.05722703277700085
v -1.3028186020993 2.481471509580623 0.05722703277700085
vt 0.1953125 0.6953125
vt 0.2109375 0.6953125
vt 0.1953125 0.609375
vt 0.2109375 0.609375
vt 0.2421875 0.6953125
vt 0.2578125 0.6953125
vt 0.2421875 0.609375
vt 0.2578125 0.609375
vt 0.4453125 0.7734375
vt 0.4296875 0.7734375
vt 0.4453125 0.7890625
vt 0.4296875 0.7890625
vt 0.4453125 0.765625
vt 0.4296875 0.765625
vt 0.4453125 0.75
vt 0.4296875 0.75
vt 0.21875 0.6953125
vt 0.234375 0.6953125
vt 0.21875 0.609375
vt 0.234375 0.609375
vt 0.171875 0.6953125
vt 0.1875 0.6953125
vt 0.171875 0.609375
vt 0.1875 0.609375
vn -0.6755902105403653 0.7372773341301256 -3.0082320448232668e-24
vn -0.6755902105403653 0.7372773341301256 -3.0082320448232668e-24
vn -0.6755902105403653 0.7372773341301256 -3.0082320448232668e-24
vn -0.6755902105403653 0.7372773341301256 -3.0082320448232668e-24
vn 0.6755902105403653 -0.7372773341301256 3.0082320448232668e-24
vn 0.6755902105403653 -0.7372773341301256 3.0082320448232668e-24
vn 0.6755902105403653 -0.7372773341301256 3.0082320448232668e-24
vn 0.6755902105403653 -0.7372773341301256 3.0082320448232668e-24
vn 0.7372773341301255 0.6755902105403655 1.2246467931216838e-16
vn 0.7372773341301255 0.6755902105403655 1.2246467931216838e-16
vn 0.7372773341301255 0.6755902105403655 1.2246467931216838e-16
vn 0.7372773341301255 0.6755902105403655 1.2246467931216838e-16
vn -0.7372773341301255 -0.6755902105403655 -1.2246467931216838e-16
vn -0.7372773341301255 -0.6755902105403655 -1.2246467931216838e-16
vn -0.7372773341301255 -0.6755902105403655 -1.2246467931216838e-16
vn -0.7372773341301255 -0.6755902105403655 -1.2246467931216838e-16
vn 9.029043432070837e-17 8.273593626236485e-17 -1
vn 9.029043432070837e-17 8.273593626236485e-17 -1
vn 9.029043432070837e-17 8.273593626236485e-17 -1
vn 9.029043432070837e-17 8.273593626236485e-17 -1
vn -9.029043432070837e-17 -8.273593626236485e-17 1
vn -9.029043432070837e-17 -8.273593626236485e-17 1
vn -9.029043432070837e-17 -8.273593626236485e-17 1
vn -9.029043432070837e-17 -8.273593626236485e-17 1
f 73/73/73 75/75/75 74/74/74
f 75/75/75 76/76/76 74/74/74
f 77/77/77 79/79/79 78/78/78
f 79/79/79 80/80/80 78/78/78
f 81/81/81 83/83/83 82/82/82
f 83/83/83 84/84/84 82/82/82
f 85/85/85 87/87/87 86/86/86
f 87/87/87 88/88/88 86/86/86
f 89/89/89 91/91/91 90/90/90
f 91/91/91 92/92/92 90/90/90
f 93/93/93 95/95/95 94/94/94
f 95/95/95 96/96/96 94/94/94
o Object_15
usemtl material_0
v -0.39695133742136557 3.3969050747597205 0.00008238085005561786
v -0.39695133742136557 3.3969050747597205 -3.122502256758253e-17
v -0.3107917734105945 2.4120967287643866 0.00008238085005561786
v -0.3107917734105945 2.4120967287643866 -3.122502256758253e-17
v -1.2176249199513762 3.325105441507752 -3.122502256758253e-17
v -1.2176249199513762 3.325105441507752 0.00008238085005561786
v -1.1314653559406052 2.3402970955124176 -3.122502256758253e-17
v -1.1314653559406052 2.3402970955124176 0.00008238085005561786
v -1.2176249199513762 3.325105441507752 -3.122502256758253e-17
v -0.39695133742136557 3.3969050747597205 -3.122502256758253e-17
v -1.2176249199513762 3.325105441507752 0.00008238085005561786
v -0.39695133742136557 3.3969050747597205 0.00008238085005561786
v -1.1314653559406052 2.3402970955124176 0.00008238085005561786
v -0.3107917734105945 2.4120967287643866 0.00008238085005561786
v -1.1314653559406052 2.3402970955124176 -3.122502256758253e-17
v -0.3107917734105945 2.4120967287643866 -3.122502256758253e-17
v -1.2176249199513762 3.325105441507752 0.00008238085005561786
v -0.39695133742136557 3.3969050747597205 0.00008238085005561786
v -1.1314653559406052 2.3402970955124176 0.00008238085005561786
v -0.3107917734105945 2.4120967287643866 0.00008238085005561786
v -0.39695133742136557 3.3969050747597205 -3.122502256758253e-17
v -1.2176249199513762 3.325105441507752 -3.122502256758253e-17
v -0.3107917734105945 2.4120967287643866 -3.122502256758253e-17
v -1.1314653559406052 2.3402970955124176 -3.122502256758253e-17
vt 0.0234375 0.5546875
vt 0.0234375 0.5546875
vt 0.0234375 0.4609375
vt 0.0234375 0.4609375
vt 0.03125 0.5546875
vt 0.03125 0.5546875
vt 0.03125 0.4609375
vt 0.03125 0.4609375
vt 0.515625 0.84375
vt 0.4375 0.84375
vt 0.515625 0.84375
vt 0.4375 0.84375
vt 0.515625 0.8359375
vt 0.4375 0.8359375
vt 0.515625 0.8359375
vt 0.4375 0.8359375
vt 0.2578125 1
vt 0.3359375 1
vt 0.2578125 0.90625
vt 0.3359375 0.90625
vt 0.171875 0.796875
vt 0.25 0.796875
vt 0.171875 0.703125
vt 0.25 0.703125
vn 0.996194698268239 0.08715574073032864 0
vn 0.996194698268239 0.08715574073032864 0
vn 0.996194698268239 0.08715574073032864 0
vn 0.996194698268239 0.08715574073032864 0
vn -0.996194698268239 -0.08715574073032864 0
vn -0.996194698268239 -0.08715574073032864 0
vn -0.996194698268239 -0.08715574073032864 0
vn -0.996194698268239 -0.08715574073032864 0
vn -0.08715574073032864 0.996194698268239 0
vn -0.08715574073032864 0.996194698268239 0
vn -0.08715574073032864 0.996194698268239 0
vn -0.08715574073032864 0.996194698268239 0
vn 0.08715574073032864 -0.996194698268239 0
vn 0.08715574073032864 -0.996194698268239 0
vn 0.08715574073032864 -0.996194698268239 0
vn 0.08715574073032864 -0.996194698268239 0
vn 0 0 1
vn 0 0 1
vn 0 0 1
vn 0 0 1
vn 0 0 -1
vn 0 0 -1
vn 0 0 -1
vn 0 0 -1
f 97/97/97 99/99/99 98/98/98
f 99/99/99 100/100/100 98/98/98
f 101/101/101 103/103/103 102/102/102
f 103/103/103 104/104/104 102/102/102
f 105/105/105 107/107/107 106/106/106
f 107/107/107 108/108/108 106/106/106
f 109/109/109 111/111/111 110/110/110
f 111/111/111 112/112/112 110/110/110
f 113/113/113 115/115/115 114/114/114
f 115/115/115 116/116/116 114/114/114
f 117/117/117 119/119/119 118/118/118
f 119/119/119 120/120/120 118/118/118
o Object_18
usemtl material_0
v 0.16982735929381576 3.410182169581904 -0.10753465950853705
v 0.16982735929381576 3.410182169581904 0.05722703277700075
v -0.7148816443141915 3.214046909901366 -0.10753465950853694
v -0.7148816443141915 3.214046909901366 0.057227032777000864
v 0.2054883155993681 3.2493259871077207 0.05722703277700075
v 0.2054883155993681 3.2493259871077207 -0.10753465950853705
v -0.6792206880086392 3.053190727427183 0.057227032777000864
v -0.6792206880086392 3.053190727427183 -0.10753465950853694
v 0.2054883155993681 3.2493259871077207 0.05722703277700075
v 0.16982735929381576 3.410182169581904 0.05722703277700075
v 0.2054883155993681 3.2493259871077207 -0.10753465950853705
v 0.16982735929381576 3.410182169581904 -0.10753465950853705
v -0.6792206880086392 3.053190727427183 -0.10753465950853694
v -0.7148816443141915 3.214046909901366 -0.10753465950853694
v -0.6792206880086392 3.053190727427183 0.057227032777000864
v -0.7148816443141915 3.214046909901366 0.057227032777000864
v 0.2054883155993681 3.2493259871077207 -0.10753465950853705
v 0.16982735929381576 3.410182169581904 -0.10753465950853705
v -0.6792206880086392 3.053190727427183 -0.10753465950853694
v -0.7148816443141915 3.214046909901366 -0.10753465950853694
v 0.16982735929381576 3.410182169581904 0.05722703277700075
v 0.2054883155993681 3.2493259871077207 0.05722703277700075
v -0.7148816443141915 3.214046909901366 0.057227032777000864
v -0.6792206880086392 3.053190727427183 0.057227032777000864
vt 0.2890625 0.6953125
vt 0.3046875 0.6953125
vt 0.2890625 0.609375
vt 0.3046875 0.609375
vt 0.3359375 0.6953125
vt 0.3515625 0.6953125
vt 0.3359375 0.609375
vt 0.3515625 0.609375
vt 0.4453125 0.7265625
vt 0.4296875 0.7265625
vt 0.4453125 0.7421875
vt 0.4296875 0.7421875
vt 0.421875 0.5703125
vt 0.40625 0.5703125
vt 0.421875 0.5546875
vt 0.40625 0.5546875
vt 0.3125 0.6953125
vt 0.328125 0.6953125
vt 0.3125 0.609375
vt 0.328125 0.609375
vt 0.265625 0.6953125
vt 0.28125 0.6953125
vt 0.265625 0.609375
vt 0.28125 0.609375
vn -0.2164396092979589 0.9762960081486286 -1.660193804293687e-24
vn -0.2164396092979589 0.9762960081486286 -1.660193804293687e-24
vn -0.2164396092979589 0.9762960081486286 -1.660193804293687e-24
vn -0.2164396092979589 0.9762960081486286 -1.660193804293687e-24
vn 0.2164396092979589 -0.9762960081486286 1.660193804293687e-24
vn 0.2164396092979589 -0.9762960081486286 1.660193804293687e-24
vn 0.2164396092979589 -0.9762960081486286 1.660193804293687e-24
vn 0.2164396092979589 -0.9762960081486286 1.660193804293687e-24
vn 0.9762960081486285 0.21643960929795902 -1.2246468449591055e-16
vn 0.9762960081486285 0.21643960929795902 -1.2246468449591055e-16
vn 0.9762960081486285 0.21643960929795902 -1.2246468449591055e-16
vn 0.9762960081486285 0.21643960929795902 -1.2246468449591055e-16
vn -0.9762960081486285 -0.21643960929795902 1.2246468449591055e-16
vn -0.9762960081486285 -0.21643960929795902 1.2246468449591055e-16
vn -0.9762960081486285 -0.21643960929795902 1.2246468449591055e-16
vn -0.9762960081486285 -0.21643960929795902 1.2246468449591055e-16
vn -1.19561782253207e-16 -2.650621008593327e-17 -1
vn -1.19561782253207e-16 -2.650621008593327e-17 -1
vn -1.19561782253207e-16 -2.650621008593327e-17 -1
vn -1.19561782253207e-16 -2.650621008593327e-17 -1
vn 1.19561782253207e-16 2.650621008593327e-17 1
vn 1.19561782253207e-16 2.650621008593327e-17 1
vn 1.19561782253207e-16 2.650621008593327e-17 1
vn 1.19561782253207e-16 2.650621008593327e-17 1
f 121/121/121 123/123/123 122/122/122
f 123/123/123 124/124/124 122/122/122
f 125/125/125 127/127/127 126/126/126
f 127/127/127 128/128/128 126/126/126
f 129/129/129 131/131/131 130/130/130
f 131/131/131 132/132/132 130/130/130
f 133/133/133 135/135/135 134/134/134
f 135/135/135 136/136/136 134/134/134
f 137/137/137 139/139/139 138/138/138
f 139/139/139 140/140/140 138/138/138
f 141/141/141 143/143/143 142/142/142
f 143/143/143 144/144/144 142/142/142
o Object_20
usemtl material_0
v 0.49422031699588553 3.366876688729244 0.0000823808500556595
v 0.49422031699588553 3.366876688729244 1.0408340855860843e-17
v 0.07643250721325731 2.4709278649621567 0.0000823808500556595
v 0.07643250721325731 2.4709278649621567 1.0408340855860843e-17
v -0.2524036672082126 3.715033180280038 1.0408340855860843e-17
v -0.2524036672082126 3.715033180280038 0.0000823808500556595
v -0.6701914769908408 2.819084356512951 1.0408340855860843e-17
v -0.6701914769908408 2.819084356512951 0.0000823808500556595
v -0.2524036672082126 3.715033180280038 1.0408340855860843e-17
v 0.49422031699588553 3.366876688729244 1.0408340855860843e-17
v -0.2524036672082126 3.715033180280038 0.0000823808500556595
v 0.49422031699588553 3.366876688729244 0.0000823808500556595
v -0.6701914769908408 2.819084356512951 0.0000823808500556595
v 0.07643250721325731 2.4709278649621567 0.0000823808500556595
v -0.6701914769908408 2.819084356512951 1.0408340855860843e-17
v 0.07643250721325731 2.4709278649621567 1.0408340855860843e-17
v -0.2524036672082126 3.715033180280038 0.0000823808500556595
v 0.49422031699588553 3.366876688729244 0.0000823808500556595
v -0.6701914769908408 2.819084356512951 0.0000823808500556595
v 0.07643250721325731 2.4709278649621567 0.0000823808500556595
v 0.49422031699588553 3.366876688729244 1.0408340855860843e-17
v -0.2524036672082126 3.715033180280038 1.0408340855860843e-17
v 0.07643250721325731 2.4709278649621567 1.0408340855860843e-17
v -0.6701914769908408 2.819084356512951 1.0408340855860843e-17
vt 0.0390625 0.5546875
vt 0.0390625 0.5546875
vt 0.0390625 0.4609375
vt 0.0390625 0.4609375
vt 0.046875 0.5546875
vt 0.046875 0.5546875
vt 0.046875 0.4609375
vt 0.046875 0.4609375
vt 0.515625 0.828125
vt 0.4375 0.828125
vt 0.515625 0.828125
vt 0.4375 0.828125
vt 0.515625 0.8203125
vt 0.4375 0.8203125
vt 0.515625 0.8203125
vt 0.4375 0.8203125
vt 0.2578125 0.796875
vt 0.3359375 0.796875
vt 0.2578125 0.703125
vt 0.3359375 0.703125
vt 0.2578125 0.8984375
vt 0.3359375 0.8984375
vt 0.2578125 0.8046875
vt 0.3359375 0.8046875
vn 0.906307782408523 -0.4226182716657496 0
vn 0.906307782408523 -0.4226182716657496 0
vn 0.906307782408523 -0.4226182716657496 0
vn 0.906307782408523 -0.4226182716657496 0
vn -0.906307782408523 0.4226182716657496 0
vn -0.906307782408523 0.4226182716657496 0
vn -0.906307782408523 0.4226182716657496 0
vn -0.906307782408523 0.4226182716657496 0
vn 0.4226182716657496 0.906307782408523 0
vn 0.4226182716657496 0.906307782408523 0
vn 0.4226182716657496 0.906307782408523 0
vn 0.4226182716657496 0.906307782408523 0
vn -0.4226182716657496 -0.906307782408523 0
vn -0.4226182716657496 -0.906307782408523 0
vn -0.4226182716657496 -0.906307782408523 0
vn -0.4226182716657496 -0.906307782408523 0
vn 0 0 1
vn 0 0 1
vn 0 0 1
vn 0 0 1
vn 0 0 -1
vn 0 0 -1
vn 0 0 -1
vn 0 0 -1
f 145/145/145 147/147/147 146/146/146
f 147/147/147 148/148/148 146/146/146
f 149/149/149 151/151/151 150/150/150
f 151/151/151 152/152/152 150/150/150
f 153/153/153 155/155/155 154/154/154
f 155/155/155 156/156/156 154/154/154
f 157/157/157 159/159/159 158/158/158
f 159/159/159 160/160/160 158/158/158
f 161/161/161 163/163/163 162/162/162
f 163/163/163 164/164/164 162/162/162
f 165/165/165 167/167/167 166/166/166
f 167/167/167 168/168/168 166/166/166
o Object_23
usemtl material_0
v 1.0018848344437385 3.1829999926085364 -0.10753465950853706
v 1.0018848344437385 3.1829999926085364 0.05722703277700074
v 0.12657317243305702 3.4175390202843667 -0.10753465950853695
v 0.12657317243305705 3.4175390202843667 0.05722703277700085
v 0.9592413748663149 3.023852417697503 0.05722703277700074
v 0.9592413748663149 3.023852417697503 -0.10753465950853706
v 0.0839297128556333 3.2583914453733334 0.05722703277700085
v 0.08392971285563329 3.2583914453733334 -0.10753465950853695
v 0.9592413748663149 3.023852417697503 0.05722703277700074
v 1.0018848344437385 3.1829999926085364 0.05722703277700074
v 0.9592413748663149 3.023852417697503 -0.10753465950853706
v 1.0018848344437385 3.1829999926085364 -0.10753465950853706
v 0.08392971285563329 3.2583914453733334 -0.10753465950853695
v 0.12657317243305702 3.4175390202843667 -0.10753465950853695
v 0.0839297128556333 3.2583914453733334 0.05722703277700085
v 0.12657317243305705 3.4175390202843667 0.05722703277700085
v 0.9592413748663149 3.023852417697503 -0.10753465950853706
v 1.0018848344437385 3.1829999926085364 -0.10753465950853706
v 0.08392971285563329 3.2583914453733334 -0.10753465950853695
v 0.12657317243305702 3.4175390202843667 -0.10753465950853695
v 1.0018848344437385 3.1829999926085364 0.05722703277700074
v 0.9592413748663149 3.023852417697503 0.05722703277700074
v 0.12657317243305705 3.4175390202843667 0.05722703277700085
v 0.0839297128556333 3.2583914453733334 0.05722703277700085
vt 0.34375 0.90625
vt 0.359375 0.90625
vt 0.34375 0.8203125
vt 0.359375 0.8203125
vt 0.359375 0.71875
vt 0.375 0.71875
vt 0.359375 0.6328125
vt 0.375 0.6328125
vt 0.4453125 0.5546875
vt 0.4296875 0.5546875
vt 0.4453125 0.5703125
vt 0.4296875 0.5703125
vt 0.453125 0.9765625
vt 0.4375 0.9765625
vt 0.453125 0.9609375
vt 0.4375 0.9609375
vt 0.34375 0.8125
vt 0.359375 0.8125
vt 0.34375 0.7265625
vt 0.359375 0.7265625
vt 0.34375 1
vt 0.359375 1
vt 0.34375 0.9140625
vt 0.359375 0.9140625
vn 0.25881901906858973 0.9659258332648386 4.1760531152583354e-24
vn 0.25881901906858973 0.9659258332648386 4.1760531152583354e-24
vn 0.25881901906858973 0.9659258332648386 4.1760531152583354e-24
vn 0.25881901906858973 0.9659258332648386 4.1760531152583354e-24
vn -0.25881901906858973 -0.9659258332648386 -4.1760531152583354e-24
vn -0.25881901906858973 -0.9659258332648386 -4.1760531152583354e-24
vn -0.25881901906858973 -0.9659258332648386 -4.1760531152583354e-24
vn -0.25881901906858973 -0.9659258332648386 -4.1760531152583354e-24
vn 0.9659258332648386 -0.25881901906858984 -1.2246467984661777e-16
vn 0.9659258332648386 -0.25881901906858984 -1.2246467984661777e-16
vn 0.9659258332648386 -0.25881901906858984 -1.2246467984661777e-16
vn 0.9659258332648386 -0.25881901906858984 -1.2246467984661777e-16
vn -0.9659258332648386 0.25881901906858984 1.2246467984661777e-16
vn -0.9659258332648386 0.25881901906858984 1.2246467984661777e-16
vn -0.9659258332648386 0.25881901906858984 1.2246467984661777e-16
vn -0.9659258332648386 0.25881901906858984 1.2246467984661777e-16
vn -1.1829179684551395e-16 3.1696192342208077e-17 -1
vn -1.1829179684551395e-16 3.1696192342208077e-17 -1
vn -1.1829179684551395e-16 3.1696192342208077e-17 -1
vn -1.1829179684551395e-16 3.1696192342208077e-17 -1
vn 1.1829179684551395e-16 -3.1696192342208077e-17 1
vn 1.1829179684551395e-16 -3.1696192342208077e-17 1
vn 1.1829179684551395e-16 -3.1696192342208077e-17 1
vn 1.1829179684551395e-16 -3.1696192342208077e-17 1
f 169/169/169 171/171/171 170/170/170
f 171/171/171 172/172/172 170/170/170
f 173/173/173 175/175/175 174/174/174
f 175/175/175 176/176/176 174/174/174
f 177/177/177 179/179/179 178/178/178
f 179/179/179 180/180/180 178/178/178
f 181/181/181 183/183/183 182/182/182
f 183/183/183 184/184/184 182/182/182
f 185/185/185 187/187/187 186/186/186
f 187/187/187 188/188/188 186/186/186
f 189/189/189 191/191/191 190/190/190
f 191/191/191 192/192/192 190/190/190
o Object_25
usemtl material_0
v 1.2907360654750741 3.2114139331528433 0.00008238085005564909
v 1.2907360654750741 3.2114139331528433 0
v 0.561885697944778 2.543545614871803 0.00008238085005564909
v 0.561885697944778 2.543545614871803 0
v 0.7341791601129102 3.8187892104661785 0
v 0.7341791601129102 3.8187892104661785 0.00008238085005564909
v 0.005328792582614095 3.1509208921851384 0
v 0.005328792582614095 3.1509208921851384 0.00008238085005564909
v 0.7341791601129102 3.8187892104661785 0
v 1.2907360654750741 3.2114139331528433 0
v 0.7341791601129102 3.8187892104661785 0.00008238085005564909
v 1.2907360654750741 3.2114139331528433 0.00008238085005564909
v 0.005328792582614095 3.1509208921851384 0.00008238085005564909
v 0.561885697944778 2.543545614871803 0.00008238085005564909
v 0.005328792582614095 3.1509208921851384 0
v 0.561885697944778 2.543545614871803 0
v 0.7341791601129102 3.8187892104661785 0.00008238085005564909
v 1.2907360654750741 3.2114139331528433 0.00008238085005564909
v 0.005328792582614095 3.1509208921851384 0.00008238085005564909
v 0.561885697944778 2.543545614871803 0.00008238085005564909
v 1.2907360654750741 3.2114139331528433 0
v 0.7341791601129102 3.8187892104661785 0
v 0.561885697944778 2.543545614871803 0
v 0.005328792582614095 3.1509208921851384 0
vt 0.0546875 0.5546875
vt 0.0546875 0.5546875
vt 0.0546875 0.4609375
vt 0.0546875 0.4609375
vt 0.0625 0.5546875
vt 0.0625 0.5546875
vt 0.0625 0.4609375
vt 0.0625 0.4609375
vt 0.515625 0.8125
vt 0.4375 0.8125
vt 0.515625 0.8125
vt 0.4375 0.8125
vt 0.515625 0.8046875
vt 0.4375 0.8046875
vt 0.515625 0.8046875
vt 0.4375 0.8046875
vt 0.0859375 0.7265625
vt 0.1640625 0.7265625
vt 0.0859375 0.6328125
vt 0.1640625 0.6328125
vt 0 0.7265625
vt 0.078125 0.7265625
vt 0 0.6328125
vt 0.078125 0.6328125
vn 0.6755902105403653 -0.7372773341301256 0
vn 0.6755902105403653 -0.7372773341301256 0
vn 0.6755902105403653 -0.7372773341301256 0
vn 0.6755902105403653 -0.7372773341301256 0
vn -0.6755902105403653 0.7372773341301256 0
vn -0.6755902105403653 0.7372773341301256 0
vn -0.6755902105403653 0.7372773341301256 0
vn -0.6755902105403653 0.7372773341301256 0
vn 0.7372773341301256 0.6755902105403653 0
vn 0.7372773341301256 0.6755902105403653 0
vn 0.7372773341301256 0.6755902105403653 0
vn 0.7372773341301256 0.6755902105403653 0
vn -0.7372773341301256 -0.6755902105403653 0
vn -0.7372773341301256 -0.6755902105403653 0
vn -0.7372773341301256 -0.6755902105403653 0
vn -0.7372773341301256 -0.6755902105403653 0
vn 0 0 0.9999999999999999
vn 0 0 0.9999999999999999
vn 0 0 0.9999999999999999
vn 0 0 0.9999999999999999
vn 0 0 -0.9999999999999999
vn 0 0 -0.9999999999999999
vn 0 0 -0.9999999999999999
vn 0 0 -0.9999999999999999
f 193/193/193 195/195/195 194/194/194
f 195/195/195 196/196/196 194/194/194
f 197/197/197 199/199/199 198/198/198
f 199/199/199 200/200/200 198/198/198
f 201/201/201 203/203/203 202/202/202
f 203/203/203 204/204/204 202/202/202
f 205/205/205 207/207/207 206/206/206
f 207/207/207 208/208/208 206/206/206
f 209/209/209 211/211/211 210/210/210
f 211/211/211 212/212/212 210/210/210
f 213/213/213 215/215/215 214/214/214
f 215/215/215 216/216/216 214/214/214
o Object_28
usemtl material_0
v -1.5666818889956522 2.5013692646092816 -0.18991550565130594
v -1.5666818889956522 2.5013692646092816 0.13960787891976978
v -1.3237317592450757 2.2787464852142594 -0.189915505651306
v -1.3237317592450757 2.2787464852142594 0.13960787891976972
v -1.3440591162353055 2.74431938711938 0.13960787891976978
v -1.3440591162353055 2.74431938711938 -0.18991550565130594
v -1.1011089864847288 2.521696607724358 0.13960787891976972
v -1.101108986484729 2.521696607724358 -0.189915505651306
v -1.3440591162353055 2.74431938711938 0.13960787891976978
v -1.5666818889956522 2.5013692646092816 0.13960787891976978
v -1.3440591162353055 2.74431938711938 -0.18991550565130594
v -1.5666818889956522 2.5013692646092816 -0.18991550565130594
v -1.101108986484729 2.521696607724358 -0.189915505651306
v -1.3237317592450757 2.2787464852142594 -0.189915505651306
v -1.1011089864847288 2.521696607724358 0.13960787891976972
v -1.3237317592450757 2.2787464852142594 0.13960787891976972
v -1.3440591162353055 2.74431938711938 -0.18991550565130594
v -1.5666818889956522 2.5013692646092816 -0.18991550565130594
v -1.101108986484729 2.521696607724358 -0.189915505651306
v -1.3237317592450757 2.2787464852142594 -0.189915505651306
v -1.5666818889956522 2.5013692646092816 0.13960787891976978
v -1.3440591162353055 2.74431938711938 0.13960787891976978
v -1.3237317592450757 2.2787464852142594 0.13960787891976972
v -1.1011089864847288 2.521696607724358 0.13960787891976972
vt 0.4375 0.9296875
vt 0.453125 0.9296875
vt 0.4375 0.9140625
vt 0.453125 0.9140625
vt 0.1171875 0.5625
vt 0.1328125 0.5625
vt 0.1171875 0.546875
vt 0.1328125 0.546875
vt 0.453125 0.8671875
vt 0.4375 0.8671875
vt 0.453125 0.8828125
vt 0.4375 0.8828125
vt 0.15625 0.5625
vt 0.140625 0.5625
vt 0.15625 0.546875
vt 0.140625 0.546875
vt 0.4375 0.90625
vt 0.453125 0.90625
vt 0.4375 0.890625
vt 0.453125 0.890625
vt 0.4375 0.953125
vt 0.453125 0.953125
vt 0.4375 0.9375
vt 0.453125 0.9375
vn -0.6755902105403653 -0.7372773341301256 3.0082320448232668e-24
vn -0.6755902105403653 -0.7372773341301256 3.0082320448232668e-24
vn -0.6755902105403653 -0.7372773341301256 3.0082320448232668e-24
vn -0.6755902105403653 -0.7372773341301256 3.0082320448232668e-24
vn 0.6755902105403653 0.7372773341301256 -3.0082320448232668e-24
vn 0.6755902105403653 0.7372773341301256 -3.0082320448232668e-24
vn 0.6755902105403653 0.7372773341301256 -3.0082320448232668e-24
vn 0.6755902105403653 0.7372773341301256 -3.0082320448232668e-24
vn -0.7372773341301255 0.6755902105403655 1.2246467931216838e-16
vn -0.7372773341301255 0.6755902105403655 1.2246467931216838e-16
vn -0.7372773341301255 0.6755902105403655 1.2246467931216838e-16
vn -0.7372773341301255 0.6755902105403655 1.2246467931216838e-16
vn 0.7372773341301255 -0.6755902105403655 -1.2246467931216838e-16
vn 0.7372773341301255 -0.6755902105403655 -1.2246467931216838e-16
vn 0.7372773341301255 -0.6755902105403655 -1.2246467931216838e-16
vn 0.7372773341301255 -0.6755902105403655 -1.2246467931216838e-16
vn -9.029043432070837e-17 8.273593626236485e-17 -1
vn -9.029043432070837e-17 8.273593626236485e-17 -1
vn -9.029043432070837e-17 8.273593626236485e-17 -1
vn -9.029043432070837e-17 8.273593626236485e-17 -1
vn 9.029043432070837e-17 -8.273593626236485e-17 1
vn 9.029043432070837e-17 -8.273593626236485e-17 1
vn 9.029043432070837e-17 -8.273593626236485e-17 1
vn 9.029043432070837e-17 -8.273593626236485e-17 1
f 217/217/217 219/219/219 218/218/218
f 219/219/219 220/220/220 218/218/218
f 221/221/221 223/223/223 222/222/222
f 223/223/223 224/224/224 222/222/222
f 225/225/225 227/227/227 226/226/226
f 227/227/227 228/228/228 226/226/226
f 229/229/229 231/231/231 230/230/230
f 231/231/231 232/232/232 230/230/230
f 233/233/233 235/235/235 234/234/234
f 235/235/235 236/236/236 234/234/234
f 237/237/237 239/239/239 238/238/238
f 239/239/239 240/240/240 238/238/238
o Object_30
usemtl material_0
v -1.2682703772110422 3.209562729282337 0.00008238085005560745
v -1.2682703772110422 3.209562729282337 -4.163336342344337e-17
v -0.7012498369494365 2.399773463032142 0.00008238085005560745
v -0.7012498369494365 2.399773463032142 -4.163336342344337e-17
v -1.9430947657528712 2.7370456123976656 -4.163336342344337e-17
v -1.9430947657528712 2.7370456123976656 0.00008238085005560745
v -1.3760742254912657 1.9272563461474708 -4.163336342344337e-17
v -1.3760742254912657 1.9272563461474708 0.00008238085005560745
v -1.9430947657528712 2.7370456123976656 -4.163336342344337e-17
v -1.2682703772110422 3.209562729282337 -4.163336342344337e-17
v -1.9430947657528712 2.7370456123976656 0.00008238085005560745
v -1.2682703772110422 3.209562729282337 0.00008238085005560745
v -1.3760742254912657 1.9272563461474708 0.00008238085005560745
v -0.7012498369494365 2.399773463032142 0.00008238085005560745
v -1.3760742254912657 1.9272563461474708 -4.163336342344337e-17
v -0.7012498369494365 2.399773463032142 -4.163336342344337e-17
v -1.9430947657528712 2.7370456123976656 0.00008238085005560745
v -1.2682703772110422 3.209562729282337 0.00008238085005560745
v -1.3760742254912657 1.9272563461474708 0.00008238085005560745
v -0.7012498369494365 2.399773463032142 0.00008238085005560745
v -1.2682703772110422 3.209562729282337 -4.163336342344337e-17
v -1.9430947657528712 2.7370456123976656 -4.163336342344337e-17
v -0.7012498369494365 2.399773463032142 -4.163336342344337e-17
v -1.3760742254912657 1.9272563461474708 -4.163336342344337e-17
vt 0.3671875 0.5625
vt 0.3671875 0.5625
vt 0.3671875 0.46875
vt 0.3671875 0.46875
vt 0.375 0.5625
vt 0.375 0.5625
vt 0.375 0.46875
vt 0.375 0.46875
vt 0.515625 0.859375
vt 0.4375 0.859375
vt 0.515625 0.859375
vt 0.4375 0.859375
vt 0.515625 0.8515625
vt 0.4375 0.8515625
vt 0.515625 0.8515625
vt 0.4375 0.8515625
vt 0.171875 0.8984375
vt 0.25 0.8984375
vt 0.171875 0.8046875
vt 0.25 0.8046875
vt 0.171875 1
vt 0.25 1
vt 0.171875 0.90625
vt 0.25 0.90625
vn 0.8191520482471556 0.5735764306982024 0
vn 0.8191520482471556 0.5735764306982024 0
vn 0.8191520482471556 0.5735764306982024 0
vn 0.8191520482471556 0.5735764306982024 0
vn -0.8191520482471556 -0.5735764306982024 0
vn -0.8191520482471556 -0.5735764306982024 0
vn -0.8191520482471556 -0.5735764306982024 0
vn -0.8191520482471556 -0.5735764306982024 0
vn -0.5735764306982024 0.8191520482471556 0
vn -0.5735764306982024 0.8191520482471556 0
vn -0.5735764306982024 0.8191520482471556 0
vn -0.5735764306982024 0.8191520482471556 0
vn 0.5735764306982024 -0.8191520482471556 0
vn 0.5735764306982024 -0.8191520482471556 0
vn 0.5735764306982024 -0.8191520482471556 0
vn 0.5735764306982024 -0.8191520482471556 0
vn 0 0 0.9999999999999999
vn 0 0 0.9999999999999999
vn 0 0 0.9999999999999999
vn 0 0 0.9999999999999999
vn 0 0 -0.9999999999999999
vn 0 0 -0.9999999999999999
vn 0 0 -0.9999999999999999
vn 0 0 -0.9999999999999999
f 241/241/241 243/243/243 242/242/242
f 243/243/243 244/244/244 242/242/242
f 245/245/245 247/247/247 246/246/246
f 247/247/247 248/248/248 246/246/246
f 249/249/249 251/251/251 250/250/250
f 251/251/251 252/252/252 250/250/250
f 253/253/253 255/255/255 254/254/254
f 255/255/255 256/256/256 254/254/254
f 257/257/257 259/259/259 258/258/258
f 259/259/259 260/260/260 258/258/258
f 261/261/261 263/263/263 262/262/262
f 263/263/263 264/264/264 262/262/262
o Object_33
usemtl material_0
v -0.39278167666113434 0.8479663890281317 -0.09329264112842679
v -0.3995350147994427 0.8455083024855292 0.0713122357110307
v -0.1715456232328777 0.5005407381709639 -0.08940405913408357
v -0.17829896137118612 0.4980826516283615 0.07520081770537392
v -0.26072022792519717 0.933982252298901 0.0783286731455823
v -0.25396688978688875 0.9364403388415035 -0.08627620369387519
v -0.03948417449694051 0.5865566014417333 0.08221725513992552
v -0.032730836358632096 0.5890146879843356 -0.08238762169953197
v -0.26072022792519717 0.933982252298901 0.0783286731455823
v -0.3995350147994427 0.8455083024855292 0.0713122357110307
v -0.25396688978688875 0.9364403388415035 -0.08627620369387519
v -0.39278167666113434 0.8479663890281317 -0.09329264112842679
v -0.032730836358632096 0.5890146879843356 -0.08238762169953197
v -0.1715456232328777 0.5005407381709639 -0.08940405913408357
v -0.03948417449694051 0.5865566014417333 0.08221725513992552
v -0.17829896137118612 0.4980826516283615 0.07520081770537392
v -0.25396688978688875 0.9364403388415035 -0.08627620369387519
v -0.39278167666113434 0.8479663890281317 -0.09329264112842679
v -0.032730836358632096 0.5890146879843356 -0.08238762169953197
v -0.1715456232328777 0.5005407381709639 -0.08940405913408357
v -0.3995350147994427 0.8455083024855292 0.0713122357110307
v -0.26072022792519717 0.933982252298901 0.0783286731455823
v -0.17829896137118612 0.4980826516283615 0.07520081770537392
v -0.03948417449694051 0.5865566014417333 0.08221725513992552
vt 0.390625 0.921875
vt 0.40625 0.921875
vt 0.390625 0.8828125
vt 0.40625 0.8828125
vt 0.390625 0.828125
vt 0.40625 0.828125
vt 0.390625 0.7890625
vt 0.40625 0.7890625
vt 0.3046875 0.5625
vt 0.2890625 0.5625
vt 0.3046875 0.578125
vt 0.2890625 0.578125
vt 0.4375 0.703125
vt 0.421875 0.703125
vt 0.4375 0.6875
vt 0.421875 0.6875
vt 0.390625 0.875
vt 0.40625 0.875
vt 0.390625 0.8359375
vt 0.40625 0.8359375
vt 0.390625 0.96875
vt 0.40625 0.96875
vt 0.390625 0.9296875
vt 0.40625 0.9296875
vn -0.8425185790983182 -0.5369813127437617 -0.04258536882706859
vn -0.8425185790983182 -0.5369813127437617 -0.04258536882706859
vn -0.8425185790983182 -0.5369813127437617 -0.04258536882706859
vn -0.8425185790983182 -0.5369813127437617 -0.04258536882706859
vn 0.8425185790983182 0.5369813127437617 0.04258536882706859
vn 0.8425185790983182 0.5369813127437617 0.04258536882706859
vn 0.8425185790983182 0.5369813127437617 0.04258536882706859
vn 0.8425185790983182 0.5369813127437617 0.04258536882706859
vn -0.5371055622440365 0.8434622054137858 -0.009440500253187916
vn -0.5371055622440365 0.8434622054137858 -0.009440500253187916
vn -0.5371055622440365 0.8434622054137858 -0.009440500253187916
vn -0.5371055622440365 0.8434622054137858 -0.009440500253187916
vn 0.5371055622440365 -0.8434622054137858 0.009440500253187916
vn 0.5371055622440365 -0.8434622054137858 0.009440500253187916
vn 0.5371055622440365 -0.8434622054137858 0.009440500253187916
vn 0.5371055622440365 -0.8434622054137858 0.009440500253187916
vn 0.04098852132815341 0.014919041607939148 -0.9990482287241352
vn 0.04098852132815341 0.014919041607939148 -0.9990482287241352
vn 0.04098852132815341 0.014919041607939148 -0.9990482287241352
vn 0.04098852132815341 0.014919041607939148 -0.9990482287241352
vn -0.04098852132815341 -0.014919041607939148 0.9990482287241352
vn -0.04098852132815341 -0.014919041607939148 0.9990482287241352
vn -0.04098852132815341 -0.014919041607939148 0.9990482287241352
vn -0.04098852132815341 -0.014919041607939148 0.9990482287241352
f 265/265/265 267/267/267 266/266/266
f 267/267/267 268/268/268 266/266/266
f 269/269/269 271/271/271 270/270/270
f 271/271/271 272/272/272 270/270/270
f 273/273/273 275/275/275 274/274/274
f 275/275/275 276/276/276 274/274/274
f 277/277/277 279/279/279 278/278/278
f 279/279/279 280/280/280 278/278/278
f 281/281/281 283/283/283 282/282/282
f 283/283/283 284/284/284 282/282/282
f 285/285/285 287/287/287 286/286/286
f 287/287/287 288/288/288 286/286/286
o Object_36
usemtl material_0
v -0.6231030054336386 1.4948442257409285 -0.09308264376954392
v -0.6298563919993905 1.4923861940744232 0.07152223190251572
v -0.3976957367723794 0.8755428393777309 -0.0930826437622023
v -0.40444912333813127 0.8730848077112258 0.07152223190985735
v -0.47517840482327445 1.548684376799619 0.07870903576654457
v -0.4684250182575226 1.5511424084661243 -0.08589583990551507
v -0.24977113616201524 0.9293829904364215 0.07870903577388619
v -0.24301774959626338 0.9318410221029266 -0.08589583989817345
v -0.47517840482327445 1.548684376799619 0.07870903576654457
v -0.6298563919993905 1.4923861940744232 0.07152223190251572
v -0.4684250182575226 1.5511424084661243 -0.08589583990551507
v -0.6231030054336386 1.4948442257409285 -0.09308264376954392
v -0.24301774959626338 0.9318410221029266 -0.08589583989817345
v -0.3976957367723794 0.8755428393777309 -0.0930826437622023
v -0.24977113616201524 0.9293829904364215 0.07870903577388619
v -0.40444912333813127 0.8730848077112258 0.07152223190985735
v -0.4684250182575226 1.5511424084661243 -0.08589583990551507
v -0.6231030054336386 1.4948442257409285 -0.09308264376954392
v -0.24301774959626338 0.9318410221029266 -0.08589583989817345
v -0.3976957367723794 0.8755428393777309 -0.0930826437622023
v -0.6298563919993905 1.4923861940744232 0.07152223190251572
v -0.47517840482327445 1.548684376799619 0.07870903576654457
v -0.40444912333813127 0.8730848077112258 0.07152223190985735
v -0.24977113616201524 0.9293829904364215 0.07870903577388619
vt 0.046875 0.625
vt 0.0625 0.625
vt 0.046875 0.5625
vt 0.0625 0.5625
vt 0.09375 0.625
vt 0.109375 0.625
vt 0.09375 0.5625
vt 0.109375 0.5625
vt 0.328125 0.5625
vt 0.3125 0.5625
vt 0.328125 0.578125
vt 0.3125 0.578125
vt 0.4375 0.6796875
vt 0.421875 0.6796875
vt 0.4375 0.6640625
vt 0.421875 0.6640625
vt 0.0703125 0.625
vt 0.0859375 0.625
vt 0.0703125 0.5625
vt 0.0859375 0.5625
vt 0.0234375 0.625
vt 0.0390625 0.625
vt 0.0234375 0.5625
vt 0.0390625 0.5625
vn -0.9387982426646456 -0.3416946132577286 -0.04361938606198504
vn -0.9387982426646456 -0.3416946132577286 -0.04361938606198504
vn -0.9387982426646456 -0.3416946132577286 -0.04361938606198504
vn -0.9387982426646456 -0.3416946132577286 -0.04361938606198504
vn 0.9387982426646456 0.3416946132577286 0.04361938606198504
vn 0.9387982426646456 0.3416946132577286 0.04361938606198504
vn 0.9387982426646456 0.3416946132577286 0.04361938606198504
vn 0.9387982426646456 0.3416946132577286 0.04361938606198504
vn -0.34202014062622726 0.9396926217684248 -1.1139751306756135e-11
vn -0.34202014062622726 0.9396926217684248 -1.1139751306756135e-11
vn -0.34202014062622726 0.9396926217684248 -1.1139751306756135e-11
vn -0.34202014062622726 0.9396926217684248 -1.1139751306756135e-11
vn 0.34202014062622726 -0.9396926217684248 1.1139751306756135e-11
vn 0.34202014062622726 -0.9396926217684248 1.1139751306756135e-11
vn 0.34202014062622726 -0.9396926217684248 1.1139751306756135e-11
vn 0.34202014062622726 -0.9396926217684248 1.1139751306756135e-11
vn 0.04098881525232219 0.014918708544491835 -0.9990482216387634
vn 0.04098881525232219 0.014918708544491835 -0.9990482216387634
vn 0.04098881525232219 0.014918708544491835 -0.9990482216387634
vn 0.04098881525232219 0.014918708544491835 -0.9990482216387634
vn -0.04098881525232219 -0.014918708544491835 0.9990482216387634
vn -0.04098881525232219 -0.014918708544491835 0.9990482216387634
vn -0.04098881525232219 -0.014918708544491835 0.9990482216387634
vn -0.04098881525232219 -0.014918708544491835 0.9990482216387634
f 289/289/289 291/291/291 290/290/290
f 291/291/291 292/292/292 290/290/290
f 293/293/293 295/295/295 294/294/294
f 295/295/295 296/296/296 294/294/294
f 297/297/297 299/299/299 298/298/298
f 299/299/299 300/300/300 298/298/298
f 301/301/301 303/303/303 302/302/302
f 303/303/303 304/304/304 302/302/302
f 305/305/305 307/307/307 306/306/306
f 307/307/307 308/308/308 306/306/306
f 309/309/309 311/311/311 310/310/310
f 311/311/311 312/312/312 310/310/310
o Object_39
usemtl material_0
v -0.719714898297949 1.7185262605228864 -0.09370606469458787
v -0.7264682143204793 1.716068200408909 0.070898813446888
v -0.5936244935614319 1.4140817206633394 -0.09307919766967017
v -0.6003778095839621 1.4116236605493622 0.0715256804718057
v -0.5743955000491827 1.7790662457968214 0.07807872265643637
v -0.5676421840266526 1.7815243059107988 -0.0865261554850395
v -0.44830509531266566 1.4746217059372746 0.07870558968135406
v -0.44155177929013545 1.4770797660512518 -0.0858992884601218
v -0.5743955000491827 1.7790662457968214 0.07807872265643637
v -0.7264682143204793 1.716068200408909 0.070898813446888
v -0.5676421840266526 1.7815243059107988 -0.0865261554850395
v -0.719714898297949 1.7185262605228864 -0.09370606469458787
v -0.44155177929013545 1.4770797660512518 -0.0858992884601218
v -0.5936244935614319 1.4140817206633394 -0.09307919766967017
v -0.44830509531266566 1.4746217059372746 0.07870558968135406
v -0.6003778095839621 1.4116236605493622 0.0715256804718057
v -0.5676421840266526 1.7815243059107988 -0.0865261554850395
v -0.719714898297949 1.7185262605228864 -0.09370606469458787
v -0.44155177929013545 1.4770797660512518 -0.0858992884601218
v -0.5936244935614319 1.4140817206633394 -0.09307919766967017
v -0.7264682143204793 1.716068200408909 0.070898813446888
v -0.5743955000491827 1.7790662457968214 0.07807872265643637
v -0.6003778095839621 1.4116236605493622 0.0715256804718057
v -0.44830509531266566 1.4746217059372746 0.07870558968135406
vt 0.40625 0.7421875
vt 0.421875 0.7421875
vt 0.40625 0.7109375
vt 0.421875 0.7109375
vt 0.4140625 0.9296875
vt 0.4296875 0.9296875
vt 0.4140625 0.8984375
vt 0.4296875 0.8984375
vt 0.3515625 0.5625
vt 0.3359375 0.5625
vt 0.3515625 0.578125
vt 0.3359375 0.578125
vt 0.4375 0.65625
vt 0.421875 0.65625
vt 0.4375 0.640625
vt 0.421875 0.640625
vt 0.4140625 0.96875
vt 0.4296875 0.96875
vt 0.4140625 0.9375
vt 0.4296875 0.9375
vt 0.40625 0.78125
vt 0.421875 0.78125
vt 0.40625 0.75
vt 0.421875 0.75
vn -0.92298587227272 -0.38235857203223356 -0.04357753983920808
vn -0.92298587227272 -0.38235857203223356 -0.04357753983920808
vn -0.92298587227272 -0.38235857203223356 -0.04357753983920808
vn -0.92298587227272 -0.38235857203223356 -0.04357753983920808
vn 0.92298587227272 0.38235857203223356 0.04357753983920808
vn 0.92298587227272 0.38235857203223356 0.04357753983920808
vn 0.92298587227272 0.38235857203223356 0.04357753983920808
vn 0.92298587227272 0.38235857203223356 0.04357753983920808
vn -0.3826447852878264 0.9238935811970602 -0.0019023445808972065
vn -0.3826447852878264 0.9238935811970602 -0.0019023445808972065
vn -0.3826447852878264 0.9238935811970602 -0.0019023445808972065
vn -0.3826447852878264 0.9238935811970602 -0.0019023445808972065
vn 0.3826447852878264 -0.9238935811970602 0.0019023445808972065
vn 0.3826447852878264 -0.9238935811970602 0.0019023445808972065
vn 0.3826447852878264 -0.9238935811970602 0.0019023445808972065
vn 0.3826447852878264 -0.9238935811970602 0.0019023445808972065
vn 0.04098838709926862 0.014918881202782786 -0.9990482366265694
vn 0.04098838709926862 0.014918881202782786 -0.9990482366265694
vn 0.04098838709926862 0.014918881202782786 -0.9990482366265694
vn 0.04098838709926862 0.014918881202782786 -0.9990482366265694
vn -0.04098838709926862 -0.014918881202782786 0.9990482366265694
vn -0.04098838709926862 -0.014918881202782786 0.9990482366265694
vn -0.04098838709926862 -0.014918881202782786 0.9990482366265694
vn -0.04098838709926862 -0.014918881202782786 0.9990482366265694
f 313/313/313 315/315/315 314/314/314
f 315/315/315 316/316/316 314/314/314
f 317/317/317 319/319/319 318/318/318
f 319/319/319 320/320/320 318/318/318
f 321/321/321 323/323/323 322/322/322
f 323/323/323 324/324/324 322/322/322
f 325/325/325 327/327/327 326/326/326
f 327/327/327 328/328/328 326/326/326
f 329/329/329 331/331/331 330/330/330
f 331/331/331 332/332/332 330/330/330
f 333/333/333 335/335/335 334/334/334
f 335/335/335 336/336/336 334/334/334
o Object_42
usemtl material_0
v -0.896091290501926 1.9665671764614054 -0.09723853176149971
v -0.9028446228945182 1.9641091840177347 0.06736634671886685
v -0.6955785780095938 1.7051066031484041 -0.0929162972721699
v -0.7023319104021859 1.7026486107047332 0.07168858120819666
v -0.7722710008315945 2.0643587010671958 0.07422045479452401
v -0.7655176684390024 2.0668166935108667 -0.09038442368584255
v -0.5717582883392622 1.8028981277541944 0.0785426892838538
v -0.5650049559466701 1.8053561201978654 -0.08606218919651276
v -0.7722710008315945 2.0643587010671958 0.07422045479452401
v -0.9028446228945182 1.9641091840177347 0.06736634671886685
v -0.7655176684390024 2.0668166935108667 -0.09038442368584255
v -0.896091290501926 1.9665671764614054 -0.09723853176149971
v -0.5650049559466701 1.8053561201978654 -0.08606218919651276
v -0.6955785780095938 1.7051066031484041 -0.0929162972721699
v -0.5717582883392622 1.8028981277541944 0.0785426892838538
v -0.7023319104021859 1.7026486107047332 0.07168858120819666
v -0.7655176684390024 2.0668166935108667 -0.09038442368584255
v -0.896091290501926 1.9665671764614054 -0.09723853176149971
v -0.5650049559466701 1.8053561201978654 -0.08606218919651276
v -0.6955785780095938 1.7051066031484041 -0.0929162972721699
v -0.9028446228945182 1.9641091840177347 0.06736634671886685
v -0.7722710008315945 2.0643587010671958 0.07422045479452401
v -0.7023319104021859 1.7026486107047332 0.07168858120819666
v -0.5717582883392622 1.8028981277541944 0.0785426892838538
vt 0.4140625 0.8515625
vt 0.4296875 0.8515625
vt 0.4140625 0.8203125
vt 0.4296875 0.8203125
vt 0.1953125 0.578125
vt 0.2109375 0.578125
vt 0.1953125 0.546875
vt 0.2109375 0.546875
vt 0.4375 0.6171875
vt 0.421875 0.6171875
vt 0.4375 0.6328125
vt 0.421875 0.6328125
vt 0.3984375 0.578125
vt 0.3828125 0.578125
vt 0.3984375 0.5625
vt 0.3828125 0.5625
vt 0.4140625 0.609375
vt 0.4296875 0.609375
vt 0.4140625 0.578125
vt 0.4296875 0.578125
vt 0.4140625 0.890625
vt 0.4296875 0.890625
vt 0.4140625 0.859375
vt 0.4296875 0.859375
vn -0.7924998842366526 -0.6084516106797772 -0.04160013156322011
vn -0.7924998842366526 -0.6084516106797772 -0.04160013156322011
vn -0.7924998842366526 -0.6084516106797772 -0.04160013156322011
vn -0.7924998842366526 -0.6084516106797772 -0.04160013156322011
vn 0.7924998842366526 0.6084516106797772 0.04160013156322011
vn 0.7924998842366526 0.6084516106797772 0.04160013156322011
vn 0.7924998842366526 0.6084516106797772 0.04160013156322011
vn 0.7924998842366526 0.6084516106797772 0.04160013156322011
vn -0.6084931203086843 0.7934507399325605 -0.013116624469476847
vn -0.6084931203086843 0.7934507399325605 -0.013116624469476847
vn -0.6084931203086843 0.7934507399325605 -0.013116624469476847
vn -0.6084931203086843 0.7934507399325605 -0.013116624469476847
vn 0.6084931203086843 -0.7934507399325605 0.013116624469476847
vn 0.6084931203086843 -0.7934507399325605 0.013116624469476847
vn 0.6084931203086843 -0.7934507399325605 0.013116624469476847
vn 0.6084931203086843 -0.7934507399325605 0.013116624469476847
vn 0.04098848645526382 0.014918470486519534 -0.999048238683423
vn 0.04098848645526382 0.014918470486519534 -0.999048238683423
vn 0.04098848645526382 0.014918470486519534 -0.999048238683423
vn 0.04098848645526382 0.014918470486519534 -0.999048238683423
vn -0.04098848645526382 -0.014918470486519534 0.999048238683423
vn -0.04098848645526382 -0.014918470486519534 0.999048238683423
vn -0.04098848645526382 -0.014918470486519534 0.999048238683423
vn -0.04098848645526382 -0.014918470486519534 0.999048238683423
f 337/337/337 339/339/339 338/338/338
f 339/339/339 340/340/340 338/338/338
f 341/341/341 343/343/343 342/342/342
f 343/343/343 344/344/344 342/342/342
f 345/345/345 347/347/347 346/346/346
f 347/347/347 348/348/348 346/346/346
f 349/349/349 351/351/351 350/350/350
f 351/351/351 352/352/352 350/350/350
f 353/353/353 355/355/355 354/354/354
f 355/355/355 356/356/356 354/354/354
f 357/357/357 359/359/359 358/358/358
f 359/359/359 360/360/360 358/358/358
o Object_45
usemtl material_0
v -1.4222566799198508 2.4770315201967392 -0.11120267545147229
v -1.4290100069637501 2.4745733404338113 0.05340220045105222
v -0.875924665815885 1.9760192886188652 -0.09627006410764087
v -0.8826779928597843 1.9735611088559368 0.06833481179488364
v -1.3178294311905747 2.5960009165520637 0.05977703955376504
v -1.3110761041466754 2.5984590963149916 -0.10482783634875947
v -0.7714974170866089 2.094988684974189 0.07470965089759646
v -0.7647440900427096 2.0974468647371176 -0.08989522500492805
v -1.3178294311905747 2.5960009165520637 0.05977703955376504
v -1.4290100069637501 2.4745733404338113 0.05340220045105222
v -1.3110761041466754 2.5984590963149916 -0.10482783634875947
v -1.4222566799198508 2.4770315201967392 -0.11120267545147229
v -0.7647440900427096 2.0974468647371176 -0.08989522500492805
v -0.875924665815885 1.9760192886188652 -0.09627006410764087
v -0.7714974170866089 2.094988684974189 0.07470965089759646
v -0.8826779928597843 1.9735611088559368 0.06833481179488364
v -1.3110761041466754 2.5984590963149916 -0.10482783634875947
v -1.4222566799198508 2.4770315201967392 -0.11120267545147229
v -0.7647440900427096 2.0974468647371176 -0.08989522500492805
v -0.875924665815885 1.9760192886188652 -0.09627006410764087
v -1.4290100069637501 2.4745733404338113 0.05340220045105222
v -1.3178294311905747 2.5960009165520637 0.05977703955376504
v -0.8826779928597843 1.9735611088559368 0.06833481179488364
v -0.7714974170866089 2.094988684974189 0.07470965089759646
vt 0.3671875 0.921875
vt 0.3828125 0.921875
vt 0.3671875 0.8515625
vt 0.3828125 0.8515625
vt 0 0.625
vt 0.015625 0.625
vt 0 0.5546875
vt 0.015625 0.5546875
vt 0.4453125 0.984375
vt 0.4296875 0.984375
vt 0.4453125 1
vt 0.4296875 1
vt 0.1796875 0.5703125
vt 0.1640625 0.5703125
vt 0.1796875 0.5546875
vt 0.1640625 0.5546875
vt 0.3671875 0.84375
vt 0.3828125 0.84375
vt 0.3671875 0.7734375
vt 0.3828125 0.7734375
vt 0.3671875 1
vt 0.3828125 1
vt 0.3671875 0.9296875
vt 0.3828125 0.9296875
vn -0.6747962723064024 -0.7369891291709608 -0.038691269883687505
vn -0.6747962723064024 -0.7369891291709608 -0.038691269883687505
vn -0.6747962723064024 -0.7369891291709608 -0.038691269883687505
vn -0.6747962723064024 -0.7369891291709608 -0.038691269883687505
vn 0.6747962723064024 0.7369891291709608 0.038691269883687505
vn 0.6747962723064024 0.7369891291709608 0.038691269883687505
vn 0.6747962723064024 0.7369891291709608 0.038691269883687505
vn 0.6747962723064024 0.7369891291709608 0.038691269883687505
vn -0.73686493845258 0.6757399120955893 -0.020140349558052304
vn -0.73686493845258 0.6757399120955893 -0.020140349558052304
vn -0.73686493845258 0.6757399120955893 -0.020140349558052304
vn -0.73686493845258 0.6757399120955893 -0.020140349558052304
vn 0.73686493845258 -0.6757399120955893 0.020140349558052304
vn 0.73686493845258 -0.6757399120955893 0.020140349558052304
vn 0.73686493845258 -0.6757399120955893 0.020140349558052304
vn 0.73686493845258 -0.6757399120955893 0.020140349558052304
vn 0.040988453992057444 0.01491960739677397 -0.9990482230375405
vn 0.040988453992057444 0.01491960739677397 -0.9990482230375405
vn 0.040988453992057444 0.01491960739677397 -0.9990482230375405
vn 0.040988453992057444 0.01491960739677397 -0.9990482230375405
vn -0.040988453992057444 -0.01491960739677397 0.9990482230375405
vn -0.040988453992057444 -0.01491960739677397 0.9990482230375405
vn -0.040988453992057444 -0.01491960739677397 0.9990482230375405
vn -0.040988453992057444 -0.01491960739677397 0.9990482230375405
f 361/361/361 363/363/363 362/362/362
f 363/363/363 364/364/364 362/362/362
f 365/365/365 367/367/367 366/366/366
f 367/367/367 368/368/368 366/366/366
f 369/369/369 371/371/371 370/370/370
f 371/371/371 372/372/372 370/370/370
f 373/373/373 375/375/375 374/374/374
f 375/375/375 376/376/376 374/374/374
f 377/377/377 379/379/379 378/378/378
f 379/379/379 380/380/380 378/378/378
f 381/381/381 383/383/383 382/382/382
f 383/383/383 384/384/384 382/382/382
o Object_48
usemtl material_0
v -0.48638983222007764 3.034957505209129 0.00008238085005564909
v -0.48638983222007764 3.034957505209129 0
v 0.47159109316165426 0.40292662538452345 0.00008238085005564909
v 0.47159109316165426 0.40292662538452345 0
v -1.2605165615802558 2.75319840950862 0
v -1.2605165615802558 2.75319840950862 0.00008238085005564909
v -0.302535636198524 0.12116752968401401 0
v -0.302535636198524 0.12116752968401401 0.00008238085005564909
v -1.2605165615802558 2.75319840950862 0
v -0.48638983222007764 3.034957505209129 0
v -1.2605165615802558 2.75319840950862 0.00008238085005564909
v -0.48638983222007764 3.034957505209129 0.00008238085005564909
v -0.302535636198524 0.12116752968401401 0.00008238085005564909
v 0.47159109316165426 0.40292662538452345 0.00008238085005564909
v -0.302535636198524 0.12116752968401401 0
v 0.47159109316165426 0.40292662538452345 0
v -1.2605165615802558 2.75319840950862 0.00008238085005564909
v -0.48638983222007764 3.034957505209129 0.00008238085005564909
v -0.302535636198524 0.12116752968401401 0.00008238085005564909
v 0.47159109316165426 0.40292662538452345 0.00008238085005564909
v -0.48638983222007764 3.034957505209129 0
v -1.2605165615802558 2.75319840950862 0
v 0.47159109316165426 0.40292662538452345 0
v -0.302535636198524 0.12116752968401401 0
vt 0.1875 0.5703125
vt 0.1875 0.5703125
vt 0.1875 0.3046875
vt 0.1875 0.3046875
vt 0.359375 0.5625
vt 0.359375 0.5625
vt 0.359375 0.296875
vt 0.359375 0.296875
vt 0.5078125 0.71875
vt 0.4296875 0.71875
vt 0.5078125 0.71875
vt 0.4296875 0.71875
vt 0.5078125 0.7109375
vt 0.4296875 0.7109375
vt 0.5078125 0.7109375
vt 0.4296875 0.7109375
vt 0.0859375 1
vt 0.1640625 1
vt 0.0859375 0.734375
vt 0.1640625 0.734375
vt 0 1
vt 0.078125 1
vt 0 0.734375
vt 0.078125 0.734375
vn 0.9396926174059803 0.3420201526119447 0
vn 0.9396926174059803 0.3420201526119447 0
vn 0.9396926174059803 0.3420201526119447 0
vn 0.9396926174059803 0.3420201526119447 0
vn -0.9396926174059803 -0.3420201526119447 0
vn -0.9396926174059803 -0.3420201526119447 0
vn -0.9396926174059803 -0.3420201526119447 0
vn -0.9396926174059803 -0.3420201526119447 0
vn -0.3420201526119447 0.9396926174059803 0
vn -0.3420201526119447 0.9396926174059803 0
vn -0.3420201526119447 0.9396926174059803 0
vn -0.3420201526119447 0.9396926174059803 0
vn 0.3420201526119447 -0.9396926174059803 0
vn 0.3420201526119447 -0.9396926174059803 0
vn 0.3420201526119447 -0.9396926174059803 0
vn 0.3420201526119447 -0.9396926174059803 0
vn 0 0 1
vn 0 0 1
vn 0 0 1
vn 0 0 1
vn 0 0 -1
vn 0 0 -1
vn 0 0 -1
vn 0 0 -1
f 385/385/385 387/387/387 386/386/386
f 387/387/387 388/388/388 386/386/386
f 389/389/389 391/391/391 390/390/390
f 391/391/391 392/392/392 390/390/390
f 393/393/393 395/395/395 394/394/394
f 395/395/395 396/396/396 394/394/394
f 397/397/397 399/399/399 398/398/398
f 399/399/399 400/400/400 398/398/398
f 401/401/401 403/403/403 402/402/402
f 403/403/403 404/404/404 402/402/402
f 405/405/405 407/407/407 406/406/406
f 407/407/407 408/408/408 406/406/406
