# File generated by ImageToStl.com - Free Image and 3D model conversion tools

mtllib heaven_wings.mtl

o obj1
v 0.30873079 1.3125 0.41612374
v 0.30873079 0.6875 0.41612374
v 0.18047321 1.3125 0.06373901
v 0.18047321 0.6875 0.06373901
v 0.00428085 1.3125 0.1278678
v 0.00428085 0.6875 0.1278678
v 0.13253842 1.3125 0.48025253
v 0.13253842 0.6875 0.48025253
v 0.00428085 1.3125 0.1278678
v 0.13253842 1.3125 0.48025253
v 0.18047321 1.3125 0.06373901
v 0.30873079 1.3125 0.41612374
v 0.13253842 0.6875 0.48025253
v 0.00428085 0.6875 0.1278678
v 0.30873079 0.6875 0.41612374
v 0.18047321 0.6875 0.06373901
v 0.13253842 1.3125 0.48025253
v 0.13253842 0.6875 0.48025253
v 0.30873079 1.3125 0.41612374
v 0.30873079 0.6875 0.41612374
v 0.18047321 1.3125 0.06373901
v 0.18047321 0.6875 0.06373901
v 0.00428085 1.3125 0.1278678
v 0.00428085 0.6875 0.1278678
vn 1 0 0
vn -1 0 0
vn 0 1 0
vn 0 -1 0
vn 0 0 1
vn 0 0 -1
vt 0.01569 0.92957
vt 0.01569 0.85168
vt 0.039 0.92957
vt 0.039 0.85168
vt 0.05084 0.92957
vt 0.05084 0.85168
vt 0.07416 0.92957
vt 0.07416 0.85168
vt 0.05072 0.92981
vt 0.05072 0.97644
vt 0.03912 0.92981
vt 0.03912 0.97644
vt 0.06244 0.97644
vt 0.06244 0.92981
vt 0.05084 0.97644
vt 0.05084 0.92981
vt 0.07428 0.92957
vt 0.07428 0.85168
vt 0.08588 0.92957
vt 0.08588 0.85168
vt 0.03912 0.92957
vt 0.03912 0.85168
vt 0.05072 0.92957
vt 0.05072 0.85168
usemtl mat0
f 1/1/1 2/2/1 3/3/1
f 2/2/1 4/4/1 3/3/1
f 5/5/2 6/6/2 7/7/2
f 6/6/2 8/8/2 7/7/2
f 9/9/3 10/10/3 11/11/3
f 10/10/3 12/12/3 11/11/3
f 13/13/4 14/14/4 15/15/4
f 14/14/4 16/16/4 15/15/4
f 17/17/5 18/18/5 19/19/5
f 18/18/5 20/20/5 19/19/5
f 21/21/6 22/22/6 23/23/6
f 22/22/6 24/24/6 23/23/6
# Vertices: 24, normals: 6, texture coordinates: 24, faces: 12

o obj2
v 0.25 1.3125 0.4375
v 0.25 0.4375 0.4375
v 0.12174242 1.3125 0.08511527
v 0.12174242 0.4375 0.08511527
v 0.06301163 1.3125 0.10649153
v 0.06301163 0.4375 0.10649153
v 0.19126921 1.3125 0.45887626
v 0.19126921 0.4375 0.45887626
v 0.06301163 1.3125 0.10649153
v 0.19126921 1.3125 0.45887626
v 0.12174242 1.3125 0.08511527
v 0.25 1.3125 0.4375
v 0.19126921 0.4375 0.45887626
v 0.06301163 0.4375 0.10649153
v 0.25 0.4375 0.4375
v 0.12174242 0.4375 0.08511527
v 0.19126921 1.3125 0.45887626
v 0.19126921 0.4375 0.45887626
v 0.25 1.3125 0.4375
v 0.25 0.4375 0.4375
v 0.12174242 1.3125 0.08511527
v 0.12174242 0.4375 0.08511527
v 0.06301163 1.3125 0.10649153
v 0.06301163 0.4375 0.10649153
vn 1 0 0
vn -1 0 0
vn 0 1 0
vn 0 -1 0
vn 0 0 1
vn 0 0 -1
vt 0.28131 0.55457
vt 0.28131 0.44543
vt 0.30463 0.55457
vt 0.30463 0.44543
vt 0.30865 0.55457
vt 0.30865 0.44543
vt 0.33197 0.55457
vt 0.33197 0.44543
vt 0.30853 0.55481
vt 0.30853 0.60144
vt 0.30475 0.55481
vt 0.30475 0.60144
vt 0.31244 0.60144
vt 0.31244 0.55481
vt 0.30865 0.60144
vt 0.30865 0.55481
vt 0.33209 0.55457
vt 0.33209 0.44543
vt 0.33588 0.55457
vt 0.33588 0.44543
vt 0.30475 0.55457
vt 0.30475 0.44543
vt 0.30853 0.55457
vt 0.30853 0.44543
usemtl mat0
f 25/25/7 26/26/7 27/27/7
f 26/26/7 28/28/7 27/27/7
f 29/29/8 30/30/8 31/31/8
f 30/30/8 32/32/8 31/31/8
f 33/33/9 34/34/9 35/35/9
f 34/34/9 36/36/9 35/35/9
f 37/37/10 38/38/10 39/39/10
f 38/38/10 40/40/10 39/39/10
f 41/41/11 42/42/11 43/43/11
f 42/42/11 44/44/11 43/43/11
f 45/45/12 46/46/12 47/47/12
f 46/46/12 48/48/12 47/47/12
# Vertices: 24, normals: 6, texture coordinates: 24, faces: 12

o obj3
v 0.875 1.3125 0.4375
v 0.875 0.3125 0.4375
v 0.875 1.3125 0.375
v 0.875 0.3125 0.375
v 0.125 1.3125 0.375
v 0.125 0.3125 0.375
v 0.125 1.3125 0.4375
v 0.125 0.3125 0.4375
v 0.125 1.3125 0.375
v 0.125 1.3125 0.4375
v 0.875 1.3125 0.375
v 0.875 1.3125 0.4375
v 0.125 0.3125 0.4375
v 0.125 0.3125 0.375
v 0.875 0.3125 0.4375
v 0.875 0.3125 0.375
v 0.125 1.3125 0.4375
v 0.125 0.3125 0.4375
v 0.875 1.3125 0.4375
v 0.875 0.3125 0.4375
v 0.875 1.3125 0.375
v 0.875 0.3125 0.375
v 0.125 1.3125 0.375
v 0.125 0.3125 0.375
vn 1 0 0
vn -1 0 0
vn 0 1 0
vn 0 -1 0
vn 0 0 1
vn 0 0 -1
vt 0.43756 0.66394
vt 0.43756 0.53918
vt 0.44135 0.66394
vt 0.44135 0.53918
vt 0.48834 0.66394
vt 0.48834 0.53918
vt 0.49213 0.66394
vt 0.49213 0.53918
vt 0.48822 0.66418
vt 0.48822 0.67175
vt 0.44147 0.66418
vt 0.44147 0.67175
vt 0.5351 0.67175
vt 0.5351 0.66418
vt 0.48834 0.67175
vt 0.48834 0.66418
vt 0.49225 0.66394
vt 0.49225 0.53918
vt 0.539 0.66394
vt 0.539 0.53918
vt 0.44147 0.66394
vt 0.44147 0.53918
vt 0.48822 0.66394
vt 0.48822 0.53918
usemtl mat0
f 49/49/13 50/50/13 51/51/13
f 50/50/13 52/52/13 51/51/13
f 53/53/14 54/54/14 55/55/14
f 54/54/14 56/56/14 55/55/14
f 57/57/15 58/58/15 59/59/15
f 58/58/15 60/60/15 59/59/15
f 61/61/16 62/62/16 63/63/16
f 62/62/16 64/64/16 63/63/16
f 65/65/17 66/66/17 67/67/17
f 66/66/17 68/68/17 67/67/17
f 69/69/18 70/70/18 71/71/18
f 70/70/18 72/72/18 71/71/18
# Vertices: 24, normals: 6, texture coordinates: 24, faces: 12

o obj4
v 0.875 1.3125 0.5
v 0.875 0.5625 0.5
v 0.875 1.3125 0.3125
v 0.875 0.5625 0.3125
v 0.125 1.3125 0.3125
v 0.125 0.5625 0.3125
v 0.125 1.3125 0.5
v 0.125 0.5625 0.5
v 0.125 1.3125 0.3125
v 0.125 1.3125 0.5
v 0.875 1.3125 0.3125
v 0.875 1.3125 0.5
v 0.125 0.5625 0.5
v 0.125 0.5625 0.3125
v 0.875 0.5625 0.5
v 0.875 0.5625 0.3125
v 0.125 1.3125 0.5
v 0.125 0.5625 0.5
v 0.875 1.3125 0.5
v 0.875 0.5625 0.5
v 0.875 1.3125 0.3125
v 0.875 0.5625 0.3125
v 0.125 1.3125 0.3125
v 0.125 0.5625 0.3125
vn 1 0 0
vn -1 0 0
vn 0 1 0
vn 0 -1 0
vn 0 0 1
vn 0 0 -1
vt 0.29694 0.38269
vt 0.29694 0.28918
vt 0.30853 0.38269
vt 0.30853 0.28918
vt 0.35553 0.38269
vt 0.35553 0.28918
vt 0.36713 0.38269
vt 0.36713 0.28918
vt 0.35541 0.38293
vt 0.35541 0.40613
vt 0.30865 0.38293
vt 0.30865 0.40613
vt 0.40228 0.40613
vt 0.40228 0.38293
vt 0.35553 0.40613
vt 0.35553 0.38293
vt 0.36725 0.38269
vt 0.36725 0.28918
vt 0.414 0.38269
vt 0.414 0.28918
vt 0.30865 0.38269
vt 0.30865 0.28918
vt 0.35541 0.38269
vt 0.35541 0.28918
usemtl mat0
f 73/73/19 74/74/19 75/75/19
f 74/74/19 76/76/19 75/75/19
f 77/77/20 78/78/20 79/79/20
f 78/78/20 80/80/20 79/79/20
f 81/81/21 82/82/21 83/83/21
f 82/82/21 84/84/21 83/83/21
f 85/85/22 86/86/22 87/87/22
f 86/86/22 88/88/22 87/87/22
f 89/89/23 90/90/23 91/91/23
f 90/90/23 92/92/23 91/91/23
f 93/93/24 94/94/24 95/95/24
f 94/94/24 96/96/24 95/95/24
# Vertices: 24, normals: 6, texture coordinates: 24, faces: 12

o obj5
v 1.24939877 1.76450327 0.5
v 1.8431489 0.73609814 0.5
v 1.24939877 1.76450327 0.4375
v 1.8431489 0.73609814 0.4375
v 0.3833734 1.26450316 0.4375
v 0.97712353 0.23609803 0.4375
v 0.3833734 1.26450316 0.5
v 0.97712353 0.23609803 0.5
v 0.3833734 1.26450316 0.4375
v 0.3833734 1.26450316 0.5
v 1.24939877 1.76450327 0.4375
v 1.24939877 1.76450327 0.5
v 0.97712353 0.23609803 0.5
v 0.97712353 0.23609803 0.4375
v 1.8431489 0.73609814 0.5
v 1.8431489 0.73609814 0.4375
v 0.3833734 1.26450316 0.5
v 0.97712353 0.23609803 0.5
v 1.24939877 1.76450327 0.5
v 1.8431489 0.73609814 0.5
v 1.24939877 1.76450327 0.4375
v 1.8431489 0.73609814 0.4375
v 0.3833734 1.26450316 0.4375
v 0.97712353 0.23609803 0.4375
vn 1 0 0
vn -1 0 0
vn 0 1 0
vn 0 -1 0
vn 0 0 1
vn 0 0 -1
vt 0.00787 0.58582
vt 0.00787 0.43762
vt 0.01166 0.58582
vt 0.01166 0.43762
vt 0.07428 0.58582
vt 0.07428 0.43762
vt 0.07806 0.58582
vt 0.07806 0.43762
vt 0.07416 0.58606
vt 0.07416 0.59363
vt 0.01178 0.58606
vt 0.01178 0.59363
vt 0.13666 0.59363
vt 0.13666 0.58606
vt 0.07428 0.59363
vt 0.07428 0.58606
vt 0.07819 0.58582
vt 0.07819 0.43762
vt 0.14056 0.58582
vt 0.14056 0.43762
vt 0.01178 0.58582
vt 0.01178 0.43762
vt 0.07416 0.58582
vt 0.07416 0.43762
usemtl mat0
f 97/97/25 98/98/25 99/99/25
f 98/98/25 100/100/25 99/99/25
f 101/101/26 102/102/26 103/103/26
f 102/102/26 104/104/26 103/103/26
f 105/105/27 106/106/27 107/107/27
f 106/106/27 108/108/27 107/107/27
f 109/109/28 110/110/28 111/111/28
f 110/110/28 112/112/28 111/111/28
f 113/113/29 114/114/29 115/115/29
f 114/114/29 116/116/29 115/115/29
f 117/117/30 118/118/30 119/119/30
f 118/118/30 120/120/30 119/119/30
# Vertices: 24, normals: 6, texture coordinates: 24, faces: 12

o obj6
v 1.24939877 1.76450327 0.5625
v 1.71814888 0.95260449 0.5625
v 1.24939877 1.76450327 0.4375
v 1.71814888 0.95260449 0.4375
v 0.3833734 1.26450316 0.4375
v 0.8521235 0.45260438 0.4375
v 0.3833734 1.26450316 0.5625
v 0.8521235 0.45260438 0.5625
v 0.3833734 1.26450316 0.4375
v 0.3833734 1.26450316 0.5625
v 1.24939877 1.76450327 0.4375
v 1.24939877 1.76450327 0.5625
v 0.8521235 0.45260438 0.5625
v 0.8521235 0.45260438 0.4375
v 1.71814888 0.95260449 0.5625
v 1.71814888 0.95260449 0.4375
v 0.3833734 1.26450316 0.5625
v 0.8521235 0.45260438 0.5625
v 1.24939877 1.76450327 0.5625
v 1.71814888 0.95260449 0.5625
v 1.24939877 1.76450327 0.4375
v 1.71814888 0.95260449 0.4375
v 0.3833734 1.26450316 0.4375
v 0.8521235 0.45260438 0.4375
vn 1 0 0
vn -1 0 0
vn 0 1 0
vn 0 -1 0
vn 0 0 1
vn 0 0 -1
vt 0.41803 0.39832
vt 0.41803 0.28137
vt 0.42572 0.39832
vt 0.42572 0.28137
vt 0.48834 0.39832
vt 0.48834 0.28137
vt 0.49603 0.39832
vt 0.49603 0.28137
vt 0.48822 0.39856
vt 0.48822 0.41394
vt 0.42584 0.39856
vt 0.42584 0.41394
vt 0.55072 0.41394
vt 0.55072 0.39856
vt 0.48834 0.41394
vt 0.48834 0.39856
vt 0.49615 0.39832
vt 0.49615 0.28137
vt 0.55853 0.39832
vt 0.55853 0.28137
vt 0.42584 0.39832
vt 0.42584 0.28137
vt 0.48822 0.39832
vt 0.48822 0.28137
usemtl mat0
f 121/121/31 122/122/31 123/123/31
f 122/122/31 124/124/31 123/123/31
f 125/125/32 126/126/32 127/127/32
f 126/126/32 128/128/32 127/127/32
f 129/129/33 130/130/33 131/131/33
f 130/130/33 132/132/33 131/131/33
f 133/133/34 134/134/34 135/135/34
f 134/134/34 136/136/34 135/135/34
f 137/137/35 138/138/35 139/139/35
f 138/138/35 140/140/35 139/139/35
f 141/141/36 142/142/36 143/143/36
f 142/142/36 144/144/36 143/143/36
# Vertices: 24, normals: 6, texture coordinates: 24, faces: 12

o obj7
v 3.5625 1.75 0.5625
v 3.5625 0.5625 0.5625
v 3.5625 1.75 0.5
v 3.5625 0.5625 0.5
v 1.5625 1.75 0.5
v 1.5625 0.5625 0.5
v 1.5625 1.75 0.5625
v 1.5625 0.5625 0.5625
v 1.5625 1.75 0.5
v 1.5625 1.75 0.5625
v 3.5625 1.75 0.5
v 3.5625 1.75 0.5625
v 1.5625 0.5625 0.5625
v 1.5625 0.5625 0.5
v 3.5625 0.5625 0.5625
v 3.5625 0.5625 0.5
v 1.5625 1.75 0.5625
v 1.5625 0.5625 0.5625
v 3.5625 1.75 0.5625
v 3.5625 0.5625 0.5625
v 3.5625 1.75 0.5
v 3.5625 0.5625 0.5
v 1.5625 1.75 0.5
v 1.5625 0.5625 0.5
vn 1 0 0
vn -1 0 0
vn 0 1 0
vn 0 -1 0
vn 0 0 1
vn 0 0 -1
vt 0.11725 0.78113
vt 0.11725 0.63293
vt 0.12103 0.78113
vt 0.12103 0.63293
vt 0.24615 0.78113
vt 0.24615 0.63293
vt 0.24994 0.78113
vt 0.24994 0.63293
vt 0.24603 0.78137
vt 0.24603 0.78894
vt 0.12115 0.78137
vt 0.12115 0.78894
vt 0.37103 0.78894
vt 0.37103 0.78137
vt 0.24615 0.78894
vt 0.24615 0.78137
vt 0.25006 0.78113
vt 0.25006 0.63293
vt 0.37494 0.78113
vt 0.37494 0.63293
vt 0.12115 0.78113
vt 0.12115 0.63293
vt 0.24603 0.78113
vt 0.24603 0.63293
usemtl mat0
f 145/145/37 146/146/37 147/147/37
f 146/146/37 148/148/37 147/147/37
f 149/149/38 150/150/38 151/151/38
f 150/150/38 152/152/38 151/151/38
f 153/153/39 154/154/39 155/155/39
f 154/154/39 156/156/39 155/155/39
f 157/157/40 158/158/40 159/159/40
f 158/158/40 160/160/40 159/159/40
f 161/161/41 162/162/41 163/163/41
f 162/162/41 164/164/41 163/163/41
f 165/165/42 166/166/42 167/167/42
f 166/166/42 168/168/42 167/167/42
# Vertices: 24, normals: 6, texture coordinates: 24, faces: 12

o obj8
v 2.3125 1.75 0.625
v 2.3125 0.8125 0.625
v 2.3125 1.75 0.5
v 2.3125 0.8125 0.5
v 1.25 1.75 0.5
v 1.25 0.8125 0.5
v 1.25 1.75 0.625
v 1.25 0.8125 0.625
v 1.25 1.75 0.5
v 1.25 1.75 0.625
v 2.3125 1.75 0.5
v 2.3125 1.75 0.625
v 1.25 0.8125 0.625
v 1.25 0.8125 0.5
v 2.3125 0.8125 0.625
v 2.3125 0.8125 0.5
v 1.25 1.75 0.625
v 1.25 0.8125 0.625
v 2.3125 1.75 0.625
v 2.3125 0.8125 0.625
v 2.3125 1.75 0.5
v 2.3125 0.8125 0.5
v 1.25 1.75 0.5
v 1.25 0.8125 0.5
vn 1 0 0
vn -1 0 0
vn 0 1 0
vn 0 -1 0
vn 0 0 1
vn 0 0 -1
vt 0.39459 0.96082
vt 0.39459 0.84387
vt 0.40228 0.96082
vt 0.40228 0.84387
vt 0.46881 0.96082
vt 0.46881 0.84387
vt 0.4765 0.96082
vt 0.4765 0.84387
vt 0.46869 0.96106
vt 0.46869 0.97644
vt 0.4024 0.96106
vt 0.4024 0.97644
vt 0.5351 0.97644
vt 0.5351 0.96106
vt 0.46881 0.97644
vt 0.46881 0.96106
vt 0.47662 0.96082
vt 0.47662 0.84387
vt 0.54291 0.96082
vt 0.54291 0.84387
vt 0.4024 0.96082
vt 0.4024 0.84387
vt 0.46869 0.96082
vt 0.46869 0.84387
usemtl mat0
f 169/169/43 170/170/43 171/171/43
f 170/170/43 172/172/43 171/171/43
f 173/173/44 174/174/44 175/175/44
f 174/174/44 176/176/44 175/175/44
f 177/177/45 178/178/45 179/179/45
f 178/178/45 180/180/45 179/179/45
f 181/181/46 182/182/46 183/183/46
f 182/182/46 184/184/46 183/183/46
f 185/185/47 186/186/47 187/187/47
f 186/186/47 188/188/47 187/187/47
f 189/189/48 190/190/48 191/191/48
f 190/190/48 192/192/48 191/191/48
# Vertices: 24, normals: 6, texture coordinates: 24, faces: 12

o obj9
v -0.13253842 1.3125 0.48025253
v -0.13253842 0.6875 0.48025253
v -0.00428085 1.3125 0.1278678
v -0.00428085 0.6875 0.1278678
v -0.18047321 1.3125 0.06373901
v -0.18047321 0.6875 0.06373901
v -0.30873079 1.3125 0.41612374
v -0.30873079 0.6875 0.41612374
v -0.18047321 1.3125 0.06373901
v -0.30873079 1.3125 0.41612374
v -0.00428085 1.3125 0.1278678
v -0.13253842 1.3125 0.48025253
v -0.30873079 0.6875 0.41612374
v -0.18047321 0.6875 0.06373901
v -0.13253842 0.6875 0.48025253
v -0.00428085 0.6875 0.1278678
v -0.30873079 1.3125 0.41612374
v -0.30873079 0.6875 0.41612374
v -0.13253842 1.3125 0.48025253
v -0.13253842 0.6875 0.48025253
v -0.00428085 1.3125 0.1278678
v -0.00428085 0.6875 0.1278678
v -0.18047321 1.3125 0.06373901
v -0.18047321 0.6875 0.06373901
vn 1 0 0
vn -1 0 0
vn 0 1 0
vn 0 -1 0
vn 0 0 1
vn 0 0 -1
vt 0.01959 0.78113
vt 0.01959 0.70325
vt 0.04291 0.78113
vt 0.04291 0.70325
vt 0.05475 0.78113
vt 0.05475 0.70325
vt 0.07806 0.78113
vt 0.07806 0.70325
vt 0.05463 0.78137
vt 0.05463 0.828
vt 0.04303 0.78137
vt 0.04303 0.828
vt 0.06635 0.828
vt 0.06635 0.78137
vt 0.05475 0.828
vt 0.05475 0.78137
vt 0.07819 0.78113
vt 0.07819 0.70325
vt 0.08978 0.78113
vt 0.08978 0.70325
vt 0.04303 0.78113
vt 0.04303 0.70325
vt 0.05463 0.78113
vt 0.05463 0.70325
usemtl mat0
f 193/193/49 194/194/49 195/195/49
f 194/194/49 196/196/49 195/195/49
f 197/197/50 198/198/50 199/199/50
f 198/198/50 200/200/50 199/199/50
f 201/201/51 202/202/51 203/203/51
f 202/202/51 204/204/51 203/203/51
f 205/205/52 206/206/52 207/207/52
f 206/206/52 208/208/52 207/207/52
f 209/209/53 210/210/53 211/211/53
f 210/210/53 212/212/53 211/211/53
f 213/213/54 214/214/54 215/215/54
f 214/214/54 216/216/54 215/215/54
# Vertices: 24, normals: 6, texture coordinates: 24, faces: 12

o obj10
v -0.19126921 1.3125 0.45887626
v -0.19126921 0.4375 0.45887626
v -0.06301163 1.3125 0.10649153
v -0.06301163 0.4375 0.10649153
v -0.12174242 1.3125 0.08511527
v -0.12174242 0.4375 0.08511527
v -0.25 1.3125 0.4375
v -0.25 0.4375 0.4375
v -0.12174242 1.3125 0.08511527
v -0.25 1.3125 0.4375
v -0.06301163 1.3125 0.10649153
v -0.19126921 1.3125 0.45887626
v -0.25 0.4375 0.4375
v -0.12174242 0.4375 0.08511527
v -0.19126921 0.4375 0.45887626
v -0.06301163 0.4375 0.10649153
v -0.25 1.3125 0.4375
v -0.25 0.4375 0.4375
v -0.19126921 1.3125 0.45887626
v -0.19126921 0.4375 0.45887626
v -0.06301163 1.3125 0.10649153
v -0.06301163 0.4375 0.10649153
v -0.12174242 1.3125 0.08511527
v -0.12174242 0.4375 0.08511527
vn 1 0 0
vn -1 0 0
vn 0 1 0
vn 0 -1 0
vn 0 0 1
vn 0 0 -1
vt 0.35162 0.55457
vt 0.35162 0.44543
vt 0.37494 0.55457
vt 0.37494 0.44543
vt 0.37897 0.55457
vt 0.37897 0.44543
vt 0.40228 0.55457
vt 0.40228 0.44543
vt 0.37885 0.55481
vt 0.37885 0.60144
vt 0.37506 0.55481
vt 0.37506 0.60144
vt 0.38275 0.60144
vt 0.38275 0.55481
vt 0.37897 0.60144
vt 0.37897 0.55481
vt 0.4024 0.55457
vt 0.4024 0.44543
vt 0.40619 0.55457
vt 0.40619 0.44543
vt 0.37506 0.55457
vt 0.37506 0.44543
vt 0.37885 0.55457
vt 0.37885 0.44543
usemtl mat0
f 217/217/55 218/218/55 219/219/55
f 218/218/55 220/220/55 219/219/55
f 221/221/56 222/222/56 223/223/56
f 222/222/56 224/224/56 223/223/56
f 225/225/57 226/226/57 227/227/57
f 226/226/57 228/228/57 227/227/57
f 229/229/58 230/230/58 231/231/58
f 230/230/58 232/232/58 231/231/58
f 233/233/59 234/234/59 235/235/59
f 234/234/59 236/236/59 235/235/59
f 237/237/60 238/238/60 239/239/60
f 238/238/60 240/240/60 239/239/60
# Vertices: 24, normals: 6, texture coordinates: 24, faces: 12

o obj11
v -0.125 1.3125 0.4375
v -0.125 0.3125 0.4375
v -0.125 1.3125 0.375
v -0.125 0.3125 0.375
v -0.875 1.3125 0.375
v -0.875 0.3125 0.375
v -0.875 1.3125 0.4375
v -0.875 0.3125 0.4375
v -0.875 1.3125 0.375
v -0.875 1.3125 0.4375
v -0.125 1.3125 0.375
v -0.125 1.3125 0.4375
v -0.875 0.3125 0.4375
v -0.875 0.3125 0.375
v -0.125 0.3125 0.4375
v -0.125 0.3125 0.375
v -0.875 1.3125 0.4375
v -0.875 0.3125 0.4375
v -0.125 1.3125 0.4375
v -0.125 0.3125 0.4375
v -0.125 1.3125 0.375
v -0.125 0.3125 0.375
v -0.875 1.3125 0.375
v -0.875 0.3125 0.375
vn 1 0 0
vn -1 0 0
vn 0 1 0
vn 0 -1 0
vn 0 0 1
vn 0 0 -1
vt 0.53912 0.66394
vt 0.53912 0.53918
vt 0.54291 0.66394
vt 0.54291 0.53918
vt 0.5899 0.66394
vt 0.5899 0.53918
vt 0.59369 0.66394
vt 0.59369 0.53918
vt 0.58978 0.66418
vt 0.58978 0.67175
vt 0.54303 0.66418
vt 0.54303 0.67175
vt 0.63666 0.67175
vt 0.63666 0.66418
vt 0.5899 0.67175
vt 0.5899 0.66418
vt 0.59381 0.66394
vt 0.59381 0.53918
vt 0.64056 0.66394
vt 0.64056 0.53918
vt 0.54303 0.66394
vt 0.54303 0.53918
vt 0.58978 0.66394
vt 0.58978 0.53918
usemtl mat0
f 241/241/61 242/242/61 243/243/61
f 242/242/61 244/244/61 243/243/61
f 245/245/62 246/246/62 247/247/62
f 246/246/62 248/248/62 247/247/62
f 249/249/63 250/250/63 251/251/63
f 250/250/63 252/252/63 251/251/63
f 253/253/64 254/254/64 255/255/64
f 254/254/64 256/256/64 255/255/64
f 257/257/65 258/258/65 259/259/65
f 258/258/65 260/260/65 259/259/65
f 261/261/66 262/262/66 263/263/66
f 262/262/66 264/264/66 263/263/66
# Vertices: 24, normals: 6, texture coordinates: 24, faces: 12

o obj12
v -0.125 1.3125 0.5
v -0.125 0.5625 0.5
v -0.125 1.3125 0.3125
v -0.125 0.5625 0.3125
v -0.875 1.3125 0.3125
v -0.875 0.5625 0.3125
v -0.875 1.3125 0.5
v -0.875 0.5625 0.5
v -0.875 1.3125 0.3125
v -0.875 1.3125 0.5
v -0.125 1.3125 0.3125
v -0.125 1.3125 0.5
v -0.875 0.5625 0.5
v -0.875 0.5625 0.3125
v -0.125 0.5625 0.5
v -0.125 0.5625 0.3125
v -0.875 1.3125 0.5
v -0.875 0.5625 0.5
v -0.125 1.3125 0.5
v -0.125 0.5625 0.5
v -0.125 1.3125 0.3125
v -0.125 0.5625 0.3125
v -0.875 1.3125 0.3125
v -0.875 0.5625 0.3125
vn 1 0 0
vn -1 0 0
vn 0 1 0
vn 0 -1 0
vn 0 0 1
vn 0 0 -1
vt 0.03912 0.38269
vt 0.03912 0.28918
vt 0.05072 0.38269
vt 0.05072 0.28918
vt 0.09772 0.38269
vt 0.09772 0.28918
vt 0.10931 0.38269
vt 0.10931 0.28918
vt 0.0976 0.38293
vt 0.0976 0.40613
vt 0.05084 0.38293
vt 0.05084 0.40613
vt 0.14447 0.40613
vt 0.14447 0.38293
vt 0.09772 0.40613
vt 0.09772 0.38293
vt 0.10944 0.38269
vt 0.10944 0.28918
vt 0.15619 0.38269
vt 0.15619 0.28918
vt 0.05084 0.38269
vt 0.05084 0.28918
vt 0.0976 0.38269
vt 0.0976 0.28918
usemtl mat0
f 265/265/67 266/266/67 267/267/67
f 266/266/67 268/268/67 267/267/67
f 269/269/68 270/270/68 271/271/68
f 270/270/68 272/272/68 271/271/68
f 273/273/69 274/274/69 275/275/69
f 274/274/69 276/276/69 275/275/69
f 277/277/70 278/278/70 279/279/70
f 278/278/70 280/280/70 279/279/70
f 281/281/71 282/282/71 283/283/71
f 282/282/71 284/284/71 283/283/71
f 285/285/72 286/286/72 287/287/72
f 286/286/72 288/288/72 287/287/72
# Vertices: 24, normals: 6, texture coordinates: 24, faces: 12

o obj13
v -0.3833734 1.26450316 0.5
v -0.97712353 0.23609803 0.5
v -0.3833734 1.26450316 0.4375
v -0.97712353 0.23609803 0.4375
v -1.24939877 1.76450327 0.4375
v -1.8431489 0.73609814 0.4375
v -1.24939877 1.76450327 0.5
v -1.8431489 0.73609814 0.5
v -1.24939877 1.76450327 0.4375
v -1.24939877 1.76450327 0.5
v -0.3833734 1.26450316 0.4375
v -0.3833734 1.26450316 0.5
v -1.8431489 0.73609814 0.5
v -1.8431489 0.73609814 0.4375
v -0.97712353 0.23609803 0.5
v -0.97712353 0.23609803 0.4375
v -1.24939877 1.76450327 0.5
v -1.8431489 0.73609814 0.5
v -0.3833734 1.26450316 0.5
v -0.97712353 0.23609803 0.5
v -0.3833734 1.26450316 0.4375
v -0.97712353 0.23609803 0.4375
v -1.24939877 1.76450327 0.4375
v -1.8431489 0.73609814 0.4375
vn 1 0 0
vn -1 0 0
vn 0 1 0
vn 0 -1 0
vn 0 0 1
vn 0 0 -1
vt 0.14459 0.58582
vt 0.14459 0.43762
vt 0.14838 0.58582
vt 0.14838 0.43762
vt 0.211 0.58582
vt 0.211 0.43762
vt 0.21478 0.58582
vt 0.21478 0.43762
vt 0.21088 0.58606
vt 0.21088 0.59363
vt 0.1485 0.58606
vt 0.1485 0.59363
vt 0.27338 0.59363
vt 0.27338 0.58606
vt 0.211 0.59363
vt 0.211 0.58606
vt 0.2149 0.58582
vt 0.2149 0.43762
vt 0.27728 0.58582
vt 0.27728 0.43762
vt 0.1485 0.58582
vt 0.1485 0.43762
vt 0.21088 0.58582
vt 0.21088 0.43762
usemtl mat0
f 289/289/73 290/290/73 291/291/73
f 290/290/73 292/292/73 291/291/73
f 293/293/74 294/294/74 295/295/74
f 294/294/74 296/296/74 295/295/74
f 297/297/75 298/298/75 299/299/75
f 298/298/75 300/300/75 299/299/75
f 301/301/76 302/302/76 303/303/76
f 302/302/76 304/304/76 303/303/76
f 305/305/77 306/306/77 307/307/77
f 306/306/77 308/308/77 307/307/77
f 309/309/78 310/310/78 311/311/78
f 310/310/78 312/312/78 311/311/78
# Vertices: 24, normals: 6, texture coordinates: 24, faces: 12

o obj14
v -0.3833734 1.26450316 0.5625
v -0.8521235 0.45260438 0.5625
v -0.3833734 1.26450316 0.4375
v -0.8521235 0.45260438 0.4375
v -1.24939877 1.76450327 0.4375
v -1.71814888 0.95260449 0.4375
v -1.24939877 1.76450327 0.5625
v -1.71814888 0.95260449 0.5625
v -1.24939877 1.76450327 0.4375
v -1.24939877 1.76450327 0.5625
v -0.3833734 1.26450316 0.4375
v -0.3833734 1.26450316 0.5625
v -1.71814888 0.95260449 0.5625
v -1.71814888 0.95260449 0.4375
v -0.8521235 0.45260438 0.5625
v -0.8521235 0.45260438 0.4375
v -1.24939877 1.76450327 0.5625
v -1.71814888 0.95260449 0.5625
v -0.3833734 1.26450316 0.5625
v -0.8521235 0.45260438 0.5625
v -0.3833734 1.26450316 0.4375
v -0.8521235 0.45260438 0.4375
v -1.24939877 1.76450327 0.4375
v -1.71814888 0.95260449 0.4375
vn 1 0 0
vn -1 0 0
vn 0 1 0
vn 0 -1 0
vn 0 0 1
vn 0 0 -1
vt 0.55865 0.39832
vt 0.55865 0.28137
vt 0.56635 0.39832
vt 0.56635 0.28137
vt 0.62897 0.39832
vt 0.62897 0.28137
vt 0.63666 0.39832
vt 0.63666 0.28137
vt 0.62885 0.39856
vt 0.62885 0.41394
vt 0.56647 0.39856
vt 0.56647 0.41394
vt 0.69135 0.41394
vt 0.69135 0.39856
vt 0.62897 0.41394
vt 0.62897 0.39856
vt 0.63678 0.39832
vt 0.63678 0.28137
vt 0.69916 0.39832
vt 0.69916 0.28137
vt 0.56647 0.39832
vt 0.56647 0.28137
vt 0.62885 0.39832
vt 0.62885 0.28137
usemtl mat0
f 313/313/79 314/314/79 315/315/79
f 314/314/79 316/316/79 315/315/79
f 317/317/80 318/318/80 319/319/80
f 318/318/80 320/320/80 319/319/80
f 321/321/81 322/322/81 323/323/81
f 322/322/81 324/324/81 323/323/81
f 325/325/82 326/326/82 327/327/82
f 326/326/82 328/328/82 327/327/82
f 329/329/83 330/330/83 331/331/83
f 330/330/83 332/332/83 331/331/83
f 333/333/84 334/334/84 335/335/84
f 334/334/84 336/336/84 335/335/84
# Vertices: 24, normals: 6, texture coordinates: 24, faces: 12

o obj15
v -1.5625 1.75 0.5625
v -1.5625 0.5625 0.5625
v -1.5625 1.75 0.5
v -1.5625 0.5625 0.5
v -3.5625 1.75 0.5
v -3.5625 0.5625 0.5
v -3.5625 1.75 0.5625
v -3.5625 0.5625 0.5625
v -3.5625 1.75 0.5
v -3.5625 1.75 0.5625
v -1.5625 1.75 0.5
v -1.5625 1.75 0.5625
v -3.5625 0.5625 0.5625
v -3.5625 0.5625 0.5
v -1.5625 0.5625 0.5625
v -1.5625 0.5625 0.5
v -3.5625 1.75 0.5625
v -3.5625 0.5625 0.5625
v -1.5625 1.75 0.5625
v -1.5625 0.5625 0.5625
v -1.5625 1.75 0.5
v -1.5625 0.5625 0.5
v -3.5625 1.75 0.5
v -3.5625 0.5625 0.5
vn 1 0 0
vn -1 0 0
vn 0 1 0
vn 0 -1 0
vn 0 0 1
vn 0 0 -1
vt 0.11725 0.96863
vt 0.11725 0.82043
vt 0.12103 0.96863
vt 0.12103 0.82043
vt 0.24615 0.96863
vt 0.24615 0.82043
vt 0.24994 0.96863
vt 0.24994 0.82043
vt 0.24603 0.96887
vt 0.24603 0.97644
vt 0.12115 0.96887
vt 0.12115 0.97644
vt 0.37103 0.97644
vt 0.37103 0.96887
vt 0.24615 0.97644
vt 0.24615 0.96887
vt 0.25006 0.96863
vt 0.25006 0.82043
vt 0.37494 0.96863
vt 0.37494 0.82043
vt 0.12115 0.96863
vt 0.12115 0.82043
vt 0.24603 0.96863
vt 0.24603 0.82043
usemtl mat0
f 337/337/85 338/338/85 339/339/85
f 338/338/85 340/340/85 339/339/85
f 341/341/86 342/342/86 343/343/86
f 342/342/86 344/344/86 343/343/86
f 345/345/87 346/346/87 347/347/87
f 346/346/87 348/348/87 347/347/87
f 349/349/88 350/350/88 351/351/88
f 350/350/88 352/352/88 351/351/88
f 353/353/89 354/354/89 355/355/89
f 354/354/89 356/356/89 355/355/89
f 357/357/90 358/358/90 359/359/90
f 358/358/90 360/360/90 359/359/90
# Vertices: 24, normals: 6, texture coordinates: 24, faces: 12

o obj16
v -1.25 1.75 0.625
v -1.25 0.8125 0.625
v -1.25 1.75 0.5
v -1.25 0.8125 0.5
v -2.3125 1.75 0.5
v -2.3125 0.8125 0.5
v -2.3125 1.75 0.625
v -2.3125 0.8125 0.625
v -2.3125 1.75 0.5
v -2.3125 1.75 0.625
v -1.25 1.75 0.5
v -1.25 1.75 0.625
v -2.3125 0.8125 0.625
v -2.3125 0.8125 0.5
v -1.25 0.8125 0.625
v -1.25 0.8125 0.5
v -2.3125 1.75 0.625
v -2.3125 0.8125 0.625
v -1.25 1.75 0.625
v -1.25 0.8125 0.625
v -1.25 1.75 0.5
v -1.25 0.8125 0.5
v -2.3125 1.75 0.5
v -2.3125 0.8125 0.5
vn 1 0 0
vn -1 0 0
vn 0 1 0
vn 0 -1 0
vn 0 0 1
vn 0 0 -1
vt 0.54303 0.96082
vt 0.54303 0.84387
vt 0.55072 0.96082
vt 0.55072 0.84387
vt 0.61725 0.96082
vt 0.61725 0.84387
vt 0.62494 0.96082
vt 0.62494 0.84387
vt 0.61713 0.96106
vt 0.61713 0.97644
vt 0.55084 0.96106
vt 0.55084 0.97644
vt 0.68353 0.97644
vt 0.68353 0.96106
vt 0.61725 0.97644
vt 0.61725 0.96106
vt 0.62506 0.96082
vt 0.62506 0.84387
vt 0.69135 0.96082
vt 0.69135 0.84387
vt 0.55084 0.96082
vt 0.55084 0.84387
vt 0.61713 0.96082
vt 0.61713 0.84387
usemtl mat0
f 361/361/91 362/362/91 363/363/91
f 362/362/91 364/364/91 363/363/91
f 365/365/92 366/366/92 367/367/92
f 366/366/92 368/368/92 367/367/92
f 369/369/93 370/370/93 371/371/93
f 370/370/93 372/372/93 371/371/93
f 373/373/94 374/374/94 375/375/94
f 374/374/94 376/376/94 375/375/94
f 377/377/95 378/378/95 379/379/95
f 378/378/95 380/380/95 379/379/95
f 381/381/96 382/382/96 383/383/96
f 382/382/96 384/384/96 383/383/96
# Vertices: 24, normals: 6, texture coordinates: 24, faces: 12

