 mtllib horn_accessory.mtl
o Object_5
usemtl material_0
v 0.22839000139460625 0.23176078294279 0.38386861979961395
v 0.22839000139460625 0.23176078294279012 -0.054838374257087596
v 0.39627590571405324 -0.17355162713751854 0.38386861979961384
v 0.39627590571405324 -0.17355162713751843 -0.05483837425708768
v -0.17692240868570241 0.06387487862334312 -0.054838374257087624
v -0.17692240868570241 0.06387487862334301 0.38386861979961395
v -0.009036504366255402 -0.3414375314569654 -0.05483837425708771
v -0.009036504366255402 -0.34143753145696554 0.38386861979961384
v -0.17692240868570241 0.06387487862334312 -0.054838374257087624
v 0.22839000139460625 0.23176078294279012 -0.054838374257087596
v -0.17692240868570241 0.06387487862334301 0.38386861979961395
v 0.22839000139460625 0.23176078294279 0.38386861979961395
v -0.009036504366255402 -0.34143753145696554 0.38386861979961384
v 0.39627590571405324 -0.17355162713751854 0.38386861979961384
v -0.009036504366255402 -0.3414375314569654 -0.05483837425708771
v 0.39627590571405324 -0.17355162713751843 -0.05483837425708768
v -0.17692240868570241 0.06387487862334301 0.38386861979961395
v 0.22839000139460625 0.23176078294279 0.38386861979961395
v -0.009036504366255402 -0.34143753145696554 0.38386861979961384
v 0.39627590571405324 -0.17355162713751854 0.38386861979961384
v 0.22839000139460625 0.23176078294279012 -0.054838374257087596
v -0.17692240868570241 0.06387487862334312 -0.054838374257087624
v 0.39627590571405324 -0.17355162713751843 -0.05483837425708768
v -0.009036504366255402 -0.3414375314569654 -0.05483837425708771
vt 0 0.875
vt 0.125 0.875
vt 0 0.75
vt 0.125 0.75
vt 0.125 0.875
vt 0.25 0.875
vt 0.125 0.75
vt 0.25 0.75
vt 0.125 0.625
vt 0 0.625
vt 0.125 0.75
vt 0 0.75
vt 0.375 1
vt 0.25 1
vt 0.375 0.875
vt 0.25 0.875
vt 0.125 1
vt 0.25 1
vt 0.125 0.875
vt 0.25 0.875
vt 0 1
vt 0.125 1
vt 0 0.875
vt 0.125 0.875
vn 0.92387952681676 0.382683446112893 8.497279460348684e-17
vn 0.92387952681676 0.382683446112893 8.497279460348684e-17
vn 0.92387952681676 0.382683446112893 8.497279460348684e-17
vn 0.92387952681676 0.382683446112893 8.497279460348684e-17
vn -0.92387952681676 -0.382683446112893 -8.497279460348684e-17
vn -0.92387952681676 -0.382683446112893 -8.497279460348684e-17
vn -0.92387952681676 -0.382683446112893 -8.497279460348684e-17
vn -0.92387952681676 -0.382683446112893 -8.497279460348684e-17
vn -0.3826834461128929 0.9238795268167601 2.0514246453035237e-16
vn -0.3826834461128929 0.9238795268167601 2.0514246453035237e-16
vn -0.3826834461128929 0.9238795268167601 2.0514246453035237e-16
vn -0.3826834461128929 0.9238795268167601 2.0514246453035237e-16
vn 0.3826834461128929 -0.9238795268167601 -2.0514246453035237e-16
vn 0.3826834461128929 -0.9238795268167601 -2.0514246453035237e-16
vn 0.3826834461128929 -0.9238795268167601 -2.0514246453035237e-16
vn 0.3826834461128929 -0.9238795268167601 -2.0514246453035237e-16
vn 0 -2.220446049250313e-16 1
vn 0 -2.220446049250313e-16 1
vn 0 -2.220446049250313e-16 1
vn 0 -2.220446049250313e-16 1
vn 0 2.220446049250313e-16 -1
vn 0 2.220446049250313e-16 -1
vn 0 2.220446049250313e-16 -1
vn 0 2.220446049250313e-16 -1
f 1/1/1 3/3/3 2/2/2
f 3/3/3 4/4/4 2/2/2
f 5/5/5 7/7/7 6/6/6
f 7/7/7 8/8/8 6/6/6
f 9/9/9 11/11/11 10/10/10
f 11/11/11 12/12/12 10/10/10
f 13/13/13 15/15/15 14/14/14
f 15/15/15 16/16/16 14/14/14
f 17/17/17 19/19/19 18/18/18
f 19/19/19 20/20/20 18/18/18
f 21/21/21 23/23/23 22/22/22
f 23/23/23 24/24/24 22/22/22
o Object_7
usemtl material_0
v 0.21935349702835083 0.38386861979961395 0.32903024554252625
v 0.21935349702835083 0.38386861979961395 0
v 0.21935349702835083 0.05483837425708771 0.32903024554252625
v 0.21935349702835083 0.05483837425708771 0
v -0.10967674851417542 0.38386861979961395 0
v -0.10967674851417542 0.38386861979961395 0.32903024554252625
v -0.10967674851417542 0.05483837425708771 0
v -0.10967674851417542 0.05483837425708771 0.32903024554252625
v -0.10967674851417542 0.38386861979961395 0
v 0.21935349702835083 0.38386861979961395 0
v -0.10967674851417542 0.38386861979961395 0.32903024554252625
v 0.21935349702835083 0.38386861979961395 0.32903024554252625
v -0.10967674851417542 0.05483837425708771 0.32903024554252625
v 0.21935349702835083 0.05483837425708771 0.32903024554252625
v -0.10967674851417542 0.05483837425708771 0
v 0.21935349702835083 0.05483837425708771 0
v -0.10967674851417542 0.38386861979961395 0.32903024554252625
v 0.21935349702835083 0.38386861979961395 0.32903024554252625
v -0.10967674851417542 0.05483837425708771 0.32903024554252625
v 0.21935349702835083 0.05483837425708771 0.32903024554252625
v 0.21935349702835083 0.38386861979961395 0
v -0.10967674851417542 0.38386861979961395 0
v 0.21935349702835083 0.05483837425708771 0
v -0.10967674851417542 0.05483837425708771 0
vt 0.25 0.625
vt 0.34375 0.625
vt 0.25 0.53125
vt 0.34375 0.53125
vt 0.375 0.625
vt 0.46875 0.625
vt 0.375 0.53125
vt 0.46875 0.53125
vt 0.09375 0.40625
vt 0 0.40625
vt 0.09375 0.5
vt 0 0.5
vt 0.59375 1
vt 0.5 1
vt 0.59375 0.90625
vt 0.5 0.90625
vt 0.375 0.75
vt 0.46875 0.75
vt 0.375 0.65625
vt 0.46875 0.65625
vt 0.375 0.875
vt 0.46875 0.875
vt 0.375 0.78125
vt 0.46875 0.78125
vn 1 0 0
vn 1 0 0
vn 1 0 0
vn 1 0 0
vn -1 0 0
vn -1 0 0
vn -1 0 0
vn -1 0 0
vn 0 1 2.220446049250313e-16
vn 0 1 2.220446049250313e-16
vn 0 1 2.220446049250313e-16
vn 0 1 2.220446049250313e-16
vn 0 -1 -2.220446049250313e-16
vn 0 -1 -2.220446049250313e-16
vn 0 -1 -2.220446049250313e-16
vn 0 -1 -2.220446049250313e-16
vn 0 -2.220446049250313e-16 1
vn 0 -2.220446049250313e-16 1
vn 0 -2.220446049250313e-16 1
vn 0 -2.220446049250313e-16 1
vn 0 2.220446049250313e-16 -1
vn 0 2.220446049250313e-16 -1
vn 0 2.220446049250313e-16 -1
vn 0 2.220446049250313e-16 -1
f 25/25/25 27/27/27 26/26/26
f 27/27/27 28/28/28 26/26/26
f 29/29/29 31/31/31 30/30/30
f 31/31/31 32/32/32 30/30/30
f 33/33/33 35/35/35 34/34/34
f 35/35/35 36/36/36 34/34/34
f 37/37/37 39/39/39 38/38/38
f 39/39/39 40/40/40 38/38/38
f 41/41/41 43/43/43 42/42/42
f 43/43/43 44/44/44 42/42/42
f 45/45/45 47/47/47 46/46/46
f 47/47/47 48/48/48 46/46/46
o Object_9
usemtl material_0
v 1.6027201393699828 0.06387487862334301 0.38386861979961395
v 1.6027201393699828 0.06387487862334312 -0.054838374257087624
v 1.4348342350505359 -0.34143753145696554 0.38386861979961384
v 1.4348342350505359 -0.3414375314569654 -0.05483837425708771
v 1.197407729289674 0.23176078294279012 -0.054838374257087596
v 1.197407729289674 0.23176078294279 0.38386861979961395
v 1.0295218249702272 -0.17355162713751843 -0.05483837425708768
v 1.0295218249702272 -0.17355162713751854 0.38386861979961384
v 1.197407729289674 0.23176078294279012 -0.054838374257087596
v 1.6027201393699828 0.06387487862334312 -0.054838374257087624
v 1.197407729289674 0.23176078294279 0.38386861979961395
v 1.6027201393699828 0.06387487862334301 0.38386861979961395
v 1.0295218249702272 -0.17355162713751854 0.38386861979961384
v 1.4348342350505359 -0.34143753145696554 0.38386861979961384
v 1.0295218249702272 -0.17355162713751843 -0.05483837425708768
v 1.4348342350505359 -0.3414375314569654 -0.05483837425708771
v 1.197407729289674 0.23176078294279 0.38386861979961395
v 1.6027201393699828 0.06387487862334301 0.38386861979961395
v 1.0295218249702272 -0.17355162713751854 0.38386861979961384
v 1.4348342350505359 -0.34143753145696554 0.38386861979961384
v 1.6027201393699828 0.06387487862334312 -0.054838374257087624
v 1.197407729289674 0.23176078294279012 -0.054838374257087596
v 1.4348342350505359 -0.3414375314569654 -0.05483837425708771
v 1.0295218249702272 -0.17355162713751843 -0.05483837425708768
vt 0.25 0.875
vt 0.375 0.875
vt 0.25 0.75
vt 0.375 0.75
vt 0 0.625
vt 0.125 0.625
vt 0 0.5
vt 0.125 0.5
vt 0.5 0.875
vt 0.375 0.875
vt 0.5 1
vt 0.375 1
vt 0.25 0.625
vt 0.125 0.625
vt 0.25 0.5
vt 0.125 0.5
vt 0.25 0.75
vt 0.375 0.75
vt 0.25 0.625
vt 0.375 0.625
vt 0.125 0.75
vt 0.25 0.75
vt 0.125 0.625
vt 0.25 0.625
vn 0.92387952681676 -0.382683446112893 -8.497279460348684e-17
vn 0.92387952681676 -0.382683446112893 -8.497279460348684e-17
vn 0.92387952681676 -0.382683446112893 -8.497279460348684e-17
vn 0.92387952681676 -0.382683446112893 -8.497279460348684e-17
vn -0.92387952681676 0.382683446112893 8.497279460348684e-17
vn -0.92387952681676 0.382683446112893 8.497279460348684e-17
vn -0.92387952681676 0.382683446112893 8.497279460348684e-17
vn -0.92387952681676 0.382683446112893 8.497279460348684e-17
vn 0.3826834461128929 0.9238795268167601 2.0514246453035237e-16
vn 0.3826834461128929 0.9238795268167601 2.0514246453035237e-16
vn 0.3826834461128929 0.9238795268167601 2.0514246453035237e-16
vn 0.3826834461128929 0.9238795268167601 2.0514246453035237e-16
vn -0.3826834461128929 -0.9238795268167601 -2.0514246453035237e-16
vn -0.3826834461128929 -0.9238795268167601 -2.0514246453035237e-16
vn -0.3826834461128929 -0.9238795268167601 -2.0514246453035237e-16
vn -0.3826834461128929 -0.9238795268167601 -2.0514246453035237e-16
vn 0 -2.220446049250313e-16 1
vn 0 -2.220446049250313e-16 1
vn 0 -2.220446049250313e-16 1
vn 0 -2.220446049250313e-16 1
vn 0 2.220446049250313e-16 -1
vn 0 2.220446049250313e-16 -1
vn 0 2.220446049250313e-16 -1
vn 0 2.220446049250313e-16 -1
f 49/49/49 51/51/51 50/50/50
f 51/51/51 52/52/52 50/50/50
f 53/53/53 55/55/55 54/54/54
f 55/55/55 56/56/56 54/54/54
f 57/57/57 59/59/59 58/58/58
f 59/59/59 60/60/60 58/58/58
f 61/61/61 63/63/63 62/62/62
f 63/63/63 64/64/64 62/62/62
f 65/65/65 67/67/67 66/66/66
f 67/67/67 68/68/68 66/66/66
f 69/69/69 71/71/71 70/70/70
f 71/71/71 72/72/72 70/70/70
o Object_11
usemtl material_0
v 1.5354744791984558 0.38386861979961384 0.32903024554252625
v 1.5354744791984558 0.38386861979961395 8.326672684688674e-17
v 1.5354744791984558 0.054838374257087735 0.32903024554252613
v 1.5354744791984558 0.05483837425708779 2.7755575615628914e-17
v 1.2064442336559296 0.38386861979961395 8.326672684688674e-17
v 1.2064442336559296 0.38386861979961384 0.32903024554252625
v 1.2064442336559296 0.05483837425708779 2.7755575615628914e-17
v 1.2064442336559296 0.054838374257087735 0.32903024554252613
v 1.2064442336559296 0.38386861979961395 8.326672684688674e-17
v 1.5354744791984558 0.38386861979961395 8.326672684688674e-17
v 1.2064442336559296 0.38386861979961384 0.32903024554252625
v 1.5354744791984558 0.38386861979961384 0.32903024554252625
v 1.2064442336559296 0.054838374257087735 0.32903024554252613
v 1.5354744791984558 0.054838374257087735 0.32903024554252613
v 1.2064442336559296 0.05483837425708779 2.7755575615628914e-17
v 1.5354744791984558 0.05483837425708779 2.7755575615628914e-17
v 1.2064442336559296 0.38386861979961384 0.32903024554252625
v 1.5354744791984558 0.38386861979961384 0.32903024554252625
v 1.2064442336559296 0.054838374257087735 0.32903024554252613
v 1.5354744791984558 0.054838374257087735 0.32903024554252613
v 1.5354744791984558 0.38386861979961395 8.326672684688674e-17
v 1.2064442336559296 0.38386861979961395 8.326672684688674e-17
v 1.5354744791984558 0.05483837425708779 2.7755575615628914e-17
v 1.2064442336559296 0.05483837425708779 2.7755575615628914e-17
vt 0.5 0.875
vt 0.59375 0.875
vt 0.5 0.78125
vt 0.59375 0.78125
vt 0.5 0.75
vt 0.59375 0.75
vt 0.5 0.65625
vt 0.59375 0.65625
vt 0.46875 0.40625
vt 0.375 0.40625
vt 0.46875 0.5
vt 0.375 0.5
vt 0.59375 0.625
vt 0.5 0.625
vt 0.59375 0.53125
vt 0.5 0.53125
vt 0.25 0.5
vt 0.34375 0.5
vt 0.25 0.40625
vt 0.34375 0.40625
vt 0.125 0.5
vt 0.21875 0.5
vt 0.125 0.40625
vt 0.21875 0.40625
vn 1 0 0
vn 1 0 0
vn 1 0 0
vn 1 0 0
vn -1 0 0
vn -1 0 0
vn -1 0 0
vn -1 0 0
vn 0 1 2.220446049250313e-16
vn 0 1 2.220446049250313e-16
vn 0 1 2.220446049250313e-16
vn 0 1 2.220446049250313e-16
vn 0 -1 -2.220446049250313e-16
vn 0 -1 -2.220446049250313e-16
vn 0 -1 -2.220446049250313e-16
vn 0 -1 -2.220446049250313e-16
vn 0 -2.220446049250313e-16 1
vn 0 -2.220446049250313e-16 1
vn 0 -2.220446049250313e-16 1
vn 0 -2.220446049250313e-16 1
vn 0 2.220446049250313e-16 -1
vn 0 2.220446049250313e-16 -1
vn 0 2.220446049250313e-16 -1
vn 0 2.220446049250313e-16 -1
f 73/73/73 75/75/75 74/74/74
f 75/75/75 76/76/76 74/74/74
f 77/77/77 79/79/79 78/78/78
f 79/79/79 80/80/80 78/78/78
f 81/81/81 83/83/83 82/82/82
f 83/83/83 84/84/84 82/82/82
f 85/85/85 87/87/87 86/86/86
f 87/87/87 88/88/88 86/86/86
f 89/89/89 91/91/91 90/90/90
f 91/91/91 92/92/92 90/90/90
f 93/93/93 95/95/95 94/94/94
f 95/95/95 96/96/96 94/94/94
o Object_13
usemtl material_0
v 1.3922890236532022 0.6620050079507083 0.27419187128543854
v 1.3922890236532022 0.6620050079507083 0.05483837425708776
v 1.5182034518927874 0.35802070039047684 0.2741918712854385
v 1.5182034518927874 0.3580207003904769 0.054838374257087694
v 1.1389687673530093 0.5570763177510539 0.054838374257087735
v 1.1389687673530093 0.5570763177510538 0.27419187128543854
v 1.2648831955925945 0.2530920101908225 0.054838374257087666
v 1.2648831955925945 0.2530920101908225 0.2741918712854384
v 1.1389687673530093 0.5570763177510539 0.054838374257087735
v 1.3922890236532022 0.6620050079507083 0.05483837425708776
v 1.1389687673530093 0.5570763177510538 0.27419187128543854
v 1.3922890236532022 0.6620050079507083 0.27419187128543854
v 1.2648831955925945 0.2530920101908225 0.2741918712854384
v 1.5182034518927874 0.35802070039047684 0.2741918712854385
v 1.2648831955925945 0.2530920101908225 0.054838374257087666
v 1.5182034518927874 0.3580207003904769 0.054838374257087694
v 1.1389687673530093 0.5570763177510538 0.27419187128543854
v 1.3922890236532022 0.6620050079507083 0.27419187128543854
v 1.2648831955925945 0.2530920101908225 0.2741918712854384
v 1.5182034518927874 0.35802070039047684 0.2741918712854385
v 1.3922890236532022 0.6620050079507083 0.05483837425708776
v 1.1389687673530093 0.5570763177510539 0.054838374257087735
v 1.5182034518927874 0.3580207003904769 0.054838374257087694
v 1.2648831955925945 0.2530920101908225 0.054838374257087666
vt 0.625 0.875
vt 0.6875 0.875
vt 0.625 0.78125
vt 0.6875 0.78125
vt 0.25 0.375
vt 0.3125 0.375
vt 0.25 0.28125
vt 0.3125 0.28125
vt 0.71875 0.6875
vt 0.625 0.6875
vt 0.71875 0.75
vt 0.625 0.75
vt 0.40625 0.375
vt 0.3125 0.375
vt 0.40625 0.3125
vt 0.3125 0.3125
vt 0 0.375
vt 0.09375 0.375
vt 0 0.28125
vt 0.09375 0.28125
vt 0.5 0.5
vt 0.59375 0.5
vt 0.5 0.40625
vt 0.59375 0.40625
vn 0.92387952681676 0.382683446112893 8.497279460348684e-17
vn 0.92387952681676 0.382683446112893 8.497279460348684e-17
vn 0.92387952681676 0.382683446112893 8.497279460348684e-17
vn 0.92387952681676 0.382683446112893 8.497279460348684e-17
vn -0.92387952681676 -0.382683446112893 -8.497279460348684e-17
vn -0.92387952681676 -0.382683446112893 -8.497279460348684e-17
vn -0.92387952681676 -0.382683446112893 -8.497279460348684e-17
vn -0.92387952681676 -0.382683446112893 -8.497279460348684e-17
vn -0.3826834461128929 0.9238795268167601 2.0514246453035237e-16
vn -0.3826834461128929 0.9238795268167601 2.0514246453035237e-16
vn -0.3826834461128929 0.9238795268167601 2.0514246453035237e-16
vn -0.3826834461128929 0.9238795268167601 2.0514246453035237e-16
vn 0.3826834461128929 -0.9238795268167601 -2.0514246453035237e-16
vn 0.3826834461128929 -0.9238795268167601 -2.0514246453035237e-16
vn 0.3826834461128929 -0.9238795268167601 -2.0514246453035237e-16
vn 0.3826834461128929 -0.9238795268167601 -2.0514246453035237e-16
vn 0 -2.220446049250313e-16 1
vn 0 -2.220446049250313e-16 1
vn 0 -2.220446049250313e-16 1
vn 0 -2.220446049250313e-16 1
vn 0 2.220446049250313e-16 -1
vn 0 2.220446049250313e-16 -1
vn 0 2.220446049250313e-16 -1
vn 0 2.220446049250313e-16 -1
f 97/97/97 99/99/99 98/98/98
f 99/99/99 100/100/100 98/98/98
f 101/101/101 103/103/103 102/102/102
f 103/103/103 104/104/104 102/102/102
f 105/105/105 107/107/107 106/106/106
f 107/107/107 108/108/108 106/106/106
f 109/109/109 111/111/111 110/110/110
f 111/111/111 112/112/112 110/110/110
f 113/113/113 115/115/115 114/114/114
f 115/115/115 116/116/116 114/114/114
f 117/117/117 119/119/119 118/118/118
f 119/119/119 120/120/120 118/118/118
o Object_15
usemtl material_0
v 1.2366962146645717 0.8943395473997122 0.27419187128543876
v 1.2366962146645717 0.8943395473997122 0.054838374257087985
v 1.3416249048642261 0.6410192910995193 0.2741918712854387
v 1.3416249048642261 0.6410192910995194 0.05483837425708793
v 1.0340400096244173 0.8103965952399887 0.05483837425708797
v 1.0340400096244173 0.8103965952399886 0.27419187128543876
v 1.1389686998240718 0.5570763389397959 0.054838374257087916
v 1.1389686998240718 0.5570763389397958 0.2741918712854387
v 1.0340400096244173 0.8103965952399887 0.05483837425708797
v 1.2366962146645717 0.8943395473997122 0.054838374257087985
v 1.0340400096244173 0.8103965952399886 0.27419187128543876
v 1.2366962146645717 0.8943395473997122 0.27419187128543876
v 1.1389686998240718 0.5570763389397958 0.2741918712854387
v 1.3416249048642261 0.6410192910995193 0.2741918712854387
v 1.1389686998240718 0.5570763389397959 0.054838374257087916
v 1.3416249048642261 0.6410192910995194 0.05483837425708793
v 1.0340400096244173 0.8103965952399886 0.27419187128543876
v 1.2366962146645717 0.8943395473997122 0.27419187128543876
v 1.1389686998240718 0.5570763389397958 0.2741918712854387
v 1.3416249048642261 0.6410192910995193 0.2741918712854387
v 1.2366962146645717 0.8943395473997122 0.054838374257087985
v 1.0340400096244173 0.8103965952399887 0.05483837425708797
v 1.3416249048642261 0.6410192910995194 0.05483837425708793
v 1.1389686998240718 0.5570763389397959 0.054838374257087916
vt 0.4375 0.375
vt 0.5 0.375
vt 0.4375 0.28125
vt 0.5 0.28125
vt 0.5 0.375
vt 0.5625 0.375
vt 0.5 0.28125
vt 0.5625 0.28125
vt 0.8125 0.9375
vt 0.75 0.9375
vt 0.8125 1
vt 0.75 1
vt 0.125 0.25
vt 0.0625 0.25
vt 0.125 0.1875
vt 0.0625 0.1875
vt 0.625 0.5625
vt 0.6875 0.5625
vt 0.625 0.46875
vt 0.6875 0.46875
vt 0.625 0.6875
vt 0.6875 0.6875
vt 0.625 0.59375
vt 0.6875 0.59375
vn 0.92387952681676 0.382683446112893 8.497279460348684e-17
vn 0.92387952681676 0.382683446112893 8.497279460348684e-17
vn 0.92387952681676 0.382683446112893 8.497279460348684e-17
vn 0.92387952681676 0.382683446112893 8.497279460348684e-17
vn -0.92387952681676 -0.382683446112893 -8.497279460348684e-17
vn -0.92387952681676 -0.382683446112893 -8.497279460348684e-17
vn -0.92387952681676 -0.382683446112893 -8.497279460348684e-17
vn -0.92387952681676 -0.382683446112893 -8.497279460348684e-17
vn -0.3826834461128929 0.9238795268167601 2.0514246453035237e-16
vn -0.3826834461128929 0.9238795268167601 2.0514246453035237e-16
vn -0.3826834461128929 0.9238795268167601 2.0514246453035237e-16
vn -0.3826834461128929 0.9238795268167601 2.0514246453035237e-16
vn 0.3826834461128929 -0.9238795268167601 -2.0514246453035237e-16
vn 0.3826834461128929 -0.9238795268167601 -2.0514246453035237e-16
vn 0.3826834461128929 -0.9238795268167601 -2.0514246453035237e-16
vn 0.3826834461128929 -0.9238795268167601 -2.0514246453035237e-16
vn 0 -2.220446049250313e-16 1
vn 0 -2.220446049250313e-16 1
vn 0 -2.220446049250313e-16 1
vn 0 -2.220446049250313e-16 1
vn 0 2.220446049250313e-16 -1
vn 0 2.220446049250313e-16 -1
vn 0 2.220446049250313e-16 -1
vn 0 2.220446049250313e-16 -1
f 121/121/121 123/123/123 122/122/122
f 123/123/123 124/124/124 122/122/122
f 125/125/125 127/127/127 126/126/126
f 127/127/127 128/128/128 126/126/126
f 129/129/129 131/131/131 130/130/130
f 131/131/131 132/132/132 130/130/130
f 133/133/133 135/135/135 134/134/134
f 135/135/135 136/136/136 134/134/134
f 137/137/137 139/139/139 138/138/138
f 139/139/139 140/140/140 138/138/138
f 141/141/141 143/143/143 142/142/142
f 143/143/143 144/144/144 142/142/142
o Object_17
usemtl material_0
v 1.0811034732048788 1.126674065659974 0.2193534970283511
v 1.0811034732048788 1.126674065659974 0.10967674851417573
v 1.186032163404533 0.8733538093597814 0.21935349702835105
v 1.186032163404533 0.8733538093597814 0.10967674851417568
v 0.9291113194247629 1.0637168515401816 0.10967674851417572
v 0.9291113194247629 1.0637168515401816 0.2193534970283511
v 1.0340400096244173 0.8103965952399887 0.10967674851417566
v 1.0340400096244173 0.8103965952399886 0.21935349702835105
v 0.9291113194247629 1.0637168515401816 0.10967674851417572
v 1.0811034732048788 1.126674065659974 0.10967674851417573
v 0.9291113194247629 1.0637168515401816 0.2193534970283511
v 1.0811034732048788 1.126674065659974 0.2193534970283511
v 1.0340400096244173 0.8103965952399886 0.21935349702835105
v 1.186032163404533 0.8733538093597814 0.21935349702835105
v 1.0340400096244173 0.8103965952399887 0.10967674851417566
v 1.186032163404533 0.8733538093597814 0.10967674851417568
v 0.9291113194247629 1.0637168515401816 0.2193534970283511
v 1.0811034732048788 1.126674065659974 0.2193534970283511
v 1.0340400096244173 0.8103965952399886 0.21935349702835105
v 1.186032163404533 0.8733538093597814 0.21935349702835105
v 1.0811034732048788 1.126674065659974 0.10967674851417573
v 0.9291113194247629 1.0637168515401816 0.10967674851417572
v 1.186032163404533 0.8733538093597814 0.10967674851417568
v 1.0340400096244173 0.8103965952399887 0.10967674851417566
vt 0.75 0.875
vt 0.78125 0.875
vt 0.75 0.78125
vt 0.78125 0.78125
vt 0.1875 0.25
vt 0.21875 0.25
vt 0.1875 0.15625
vt 0.21875 0.15625
vt 0.8125 0.71875
vt 0.75 0.71875
vt 0.8125 0.75
vt 0.75 0.75
vt 0.8125 0.5625
vt 0.75 0.5625
vt 0.8125 0.53125
vt 0.75 0.53125
vt 0.625 0.4375
vt 0.6875 0.4375
vt 0.625 0.34375
vt 0.6875 0.34375
vt 0.5625 0.375
vt 0.625 0.375
vt 0.5625 0.28125
vt 0.625 0.28125
vn 0.92387952681676 0.382683446112893 8.497279460348684e-17
vn 0.92387952681676 0.382683446112893 8.497279460348684e-17
vn 0.92387952681676 0.382683446112893 8.497279460348684e-17
vn 0.92387952681676 0.382683446112893 8.497279460348684e-17
vn -0.92387952681676 -0.382683446112893 -8.497279460348684e-17
vn -0.92387952681676 -0.382683446112893 -8.497279460348684e-17
vn -0.92387952681676 -0.382683446112893 -8.497279460348684e-17
vn -0.92387952681676 -0.382683446112893 -8.497279460348684e-17
vn -0.3826834461128929 0.9238795268167601 2.0514246453035237e-16
vn -0.3826834461128929 0.9238795268167601 2.0514246453035237e-16
vn -0.3826834461128929 0.9238795268167601 2.0514246453035237e-16
vn -0.3826834461128929 0.9238795268167601 2.0514246453035237e-16
vn 0.3826834461128929 -0.9238795268167601 -2.0514246453035237e-16
vn 0.3826834461128929 -0.9238795268167601 -2.0514246453035237e-16
vn 0.3826834461128929 -0.9238795268167601 -2.0514246453035237e-16
vn 0.3826834461128929 -0.9238795268167601 -2.0514246453035237e-16
vn 0 -2.220446049250313e-16 1
vn 0 -2.220446049250313e-16 1
vn 0 -2.220446049250313e-16 1
vn 0 -2.220446049250313e-16 1
vn 0 2.220446049250313e-16 -1
vn 0 2.220446049250313e-16 -1
vn 0 2.220446049250313e-16 -1
vn 0 2.220446049250313e-16 -1
f 145/145/145 147/147/147 146/146/146
f 147/147/147 148/148/148 146/146/146
f 149/149/149 151/151/151 150/150/150
f 151/151/151 152/152/152 150/150/150
f 153/153/153 155/155/155 154/154/154
f 155/155/155 156/156/156 154/154/154
f 157/157/157 159/159/159 158/158/158
f 159/159/159 160/160/160 158/158/158
f 161/161/161 163/163/163 162/162/162
f 163/163/163 164/164/164 162/162/162
f 165/165/165 167/167/167 166/166/166
f 167/167/167 168/168/168 166/166/166
o Object_19
usemtl material_0
v 1.0579734940877756 1.2429561514037455 0.21935349702835105
v 1.0579734940877756 1.2429561514037455 0.10967674851417566
v 1.0579734940877756 1.0236026543753947 0.219353497028351
v 1.0579734940877756 1.0236026543753947 0.10967674851417562
v 0.9482967455736002 1.2429561514037455 0.10967674851417566
v 0.9482967455736002 1.2429561514037455 0.21935349702835105
v 0.9482967455736002 1.0236026543753947 0.10967674851417562
v 0.9482967455736002 1.0236026543753947 0.219353497028351
v 0.9482967455736002 1.2429561514037455 0.10967674851417566
v 1.0579734940877756 1.2429561514037455 0.10967674851417566
v 0.9482967455736002 1.2429561514037455 0.21935349702835105
v 1.0579734940877756 1.2429561514037455 0.21935349702835105
v 0.9482967455736002 1.0236026543753947 0.219353497028351
v 1.0579734940877756 1.0236026543753947 0.219353497028351
v 0.9482967455736002 1.0236026543753947 0.10967674851417562
v 1.0579734940877756 1.0236026543753947 0.10967674851417562
v 0.9482967455736002 1.2429561514037455 0.21935349702835105
v 1.0579734940877756 1.2429561514037455 0.21935349702835105
v 0.9482967455736002 1.0236026543753947 0.219353497028351
v 1.0579734940877756 1.0236026543753947 0.219353497028351
v 1.0579734940877756 1.2429561514037455 0.10967674851417566
v 0.9482967455736002 1.2429561514037455 0.10967674851417566
v 1.0579734940877756 1.0236026543753947 0.10967674851417562
v 0.9482967455736002 1.0236026543753947 0.10967674851417562
vt 0.75 0.5
vt 0.78125 0.5
vt 0.75 0.4375
vt 0.78125 0.4375
vt 0.75 0.4375
vt 0.78125 0.4375
vt 0.75 0.375
vt 0.78125 0.375
vt 0.84375 0.53125
vt 0.8125 0.53125
vt 0.84375 0.5625
vt 0.8125 0.5625
vt 0.53125 0.1875
vt 0.5 0.1875
vt 0.53125 0.15625
vt 0.5 0.15625
vt 0.5625 0.25
vt 0.59375 0.25
vt 0.5625 0.1875
vt 0.59375 0.1875
vt 0.5 0.25
vt 0.53125 0.25
vt 0.5 0.1875
vt 0.53125 0.1875
vn 1 0 0
vn 1 0 0
vn 1 0 0
vn 1 0 0
vn -1 0 0
vn -1 0 0
vn -1 0 0
vn -1 0 0
vn 0 1 2.220446049250313e-16
vn 0 1 2.220446049250313e-16
vn 0 1 2.220446049250313e-16
vn 0 1 2.220446049250313e-16
vn 0 -1 -2.220446049250313e-16
vn 0 -1 -2.220446049250313e-16
vn 0 -1 -2.220446049250313e-16
vn 0 -1 -2.220446049250313e-16
vn 0 -2.220446049250313e-16 1
vn 0 -2.220446049250313e-16 1
vn 0 -2.220446049250313e-16 1
vn 0 -2.220446049250313e-16 1
vn 0 2.220446049250313e-16 -1
vn 0 2.220446049250313e-16 -1
vn 0 2.220446049250313e-16 -1
vn 0 2.220446049250313e-16 -1
f 169/169/169 171/171/171 170/170/170
f 171/171/171 172/172/172 170/170/170
f 173/173/173 175/175/175 174/174/174
f 175/175/175 176/176/176 174/174/174
f 177/177/177 179/179/179 178/178/178
f 179/179/179 180/180/180 178/178/178
f 181/181/181 183/183/183 182/182/182
f 183/183/183 184/184/184 182/182/182
f 185/185/185 187/187/187 186/186/186
f 187/187/187 188/188/188 186/186/186
f 189/189/189 191/191/191 190/190/190
f 191/191/191 192/192/192 190/190/190
o Object_21
usemtl material_0
v 1.0726977476321329 1.3718183441180631 0.16451512277126334
v 1.0726977476321329 1.3718183441180631 0.10967674851417565
v 1.0097405335123402 1.2198261903379475 0.16451512277126332
v 1.0097405335123402 1.2198261903379475 0.10967674851417561
v 1.0220336963720942 1.3928040821579941 0.10967674851417565
v 1.0220336963720942 1.3928040821579941 0.16451512277126334
v 0.9590764822523016 1.2408119283778782 0.10967674851417562
v 0.9590764822523016 1.2408119283778782 0.16451512277126332
v 1.0220336963720942 1.3928040821579941 0.10967674851417565
v 1.0726977476321329 1.3718183441180631 0.10967674851417565
v 1.0220336963720942 1.3928040821579941 0.16451512277126334
v 1.0726977476321329 1.3718183441180631 0.16451512277126334
v 0.9590764822523016 1.2408119283778782 0.16451512277126332
v 1.0097405335123402 1.2198261903379475 0.16451512277126332
v 0.9590764822523016 1.2408119283778782 0.10967674851417562
v 1.0097405335123402 1.2198261903379475 0.10967674851417561
v 1.0220336963720942 1.3928040821579941 0.16451512277126334
v 1.0726977476321329 1.3718183441180631 0.16451512277126334
v 0.9590764822523016 1.2408119283778782 0.16451512277126332
v 1.0097405335123402 1.2198261903379475 0.16451512277126332
v 1.0726977476321329 1.3718183441180631 0.10967674851417565
v 1.0220336963720942 1.3928040821579941 0.10967674851417565
v 1.0097405335123402 1.2198261903379475 0.10967674851417561
v 0.9590764822523016 1.2408119283778782 0.10967674851417562
vt 0.75 0.3125
vt 0.78125 0.3125
vt 0.75 0.25
vt 0.78125 0.25
vt 0.8125 1
vt 0.84375 1
vt 0.8125 0.9375
vt 0.84375 0.9375
vt 0.84375 0.46875
vt 0.8125 0.46875
vt 0.84375 0.5
vt 0.8125 0.5
vt 0.59375 0.1875
vt 0.5625 0.1875
vt 0.59375 0.15625
vt 0.5625 0.15625
vt 0.75 0.25
vt 0.78125 0.25
vt 0.75 0.1875
vt 0.78125 0.1875
vt 0.75 0.375
vt 0.78125 0.375
vt 0.75 0.3125
vt 0.78125 0.3125
vn 0.92387952681676 -0.382683446112893 -8.497279460348684e-17
vn 0.92387952681676 -0.382683446112893 -8.497279460348684e-17
vn 0.92387952681676 -0.382683446112893 -8.497279460348684e-17
vn 0.92387952681676 -0.382683446112893 -8.497279460348684e-17
vn -0.92387952681676 0.382683446112893 8.497279460348684e-17
vn -0.92387952681676 0.382683446112893 8.497279460348684e-17
vn -0.92387952681676 0.382683446112893 8.497279460348684e-17
vn -0.92387952681676 0.382683446112893 8.497279460348684e-17
vn 0.3826834461128929 0.9238795268167601 2.0514246453035237e-16
vn 0.3826834461128929 0.9238795268167601 2.0514246453035237e-16
vn 0.3826834461128929 0.9238795268167601 2.0514246453035237e-16
vn 0.3826834461128929 0.9238795268167601 2.0514246453035237e-16
vn -0.3826834461128929 -0.9238795268167601 -2.0514246453035237e-16
vn -0.3826834461128929 -0.9238795268167601 -2.0514246453035237e-16
vn -0.3826834461128929 -0.9238795268167601 -2.0514246453035237e-16
vn -0.3826834461128929 -0.9238795268167601 -2.0514246453035237e-16
vn 0 -2.220446049250313e-16 1
vn 0 -2.220446049250313e-16 1
vn 0 -2.220446049250313e-16 1
vn 0 -2.220446049250313e-16 1
vn 0 2.220446049250313e-16 -1
vn 0 2.220446049250313e-16 -1
vn 0 2.220446049250313e-16 -1
vn 0 2.220446049250313e-16 -1
f 193/193/193 195/195/195 194/194/194
f 195/195/195 196/196/196 194/194/194
f 197/197/197 199/199/199 198/198/198
f 199/199/199 200/200/200 198/198/198
f 201/201/201 203/203/203 202/202/202
f 203/203/203 204/204/204 202/202/202
f 205/205/205 207/207/207 206/206/206
f 207/207/207 208/208/208 206/206/206
f 209/209/209 211/211/211 210/210/210
f 211/211/211 212/212/212 210/210/210
f 213/213/213 215/215/215 214/214/214
f 215/215/215 216/216/216 214/214/214
o Object_23
usemtl material_0
v 0.28038644358642917 0.5389359871274081 0.27419187128543854
v 0.28038644358642917 0.5389359871274082 0.05483837425708775
v 0.15447201534684396 0.2349516795671767 0.2741918712854384
v 0.15447201534684396 0.23495167956717675 0.05483837425708768
v 0.027066187286236332 0.6438646773270625 0.05483837425708778
v 0.027066187286236332 0.6438646773270625 0.27419187128543854
v -0.09884824095334888 0.3398803697668311 0.05483837425708771
v -0.09884824095334888 0.3398803697668311 0.2741918712854385
v 0.027066187286236332 0.6438646773270625 0.05483837425708778
v 0.28038644358642917 0.5389359871274082 0.05483837425708775
v 0.027066187286236332 0.6438646773270625 0.27419187128543854
v 0.28038644358642917 0.5389359871274081 0.27419187128543854
v -0.09884824095334888 0.3398803697668311 0.2741918712854385
v 0.15447201534684396 0.2349516795671767 0.2741918712854384
v -0.09884824095334888 0.3398803697668311 0.05483837425708771
v 0.15447201534684396 0.23495167956717675 0.05483837425708768
v 0.027066187286236332 0.6438646773270625 0.27419187128543854
v 0.28038644358642917 0.5389359871274081 0.27419187128543854
v -0.09884824095334888 0.3398803697668311 0.2741918712854385
v 0.15447201534684396 0.2349516795671767 0.2741918712854384
v 0.28038644358642917 0.5389359871274082 0.05483837425708775
v 0.027066187286236332 0.6438646773270625 0.05483837425708778
v 0.15447201534684396 0.23495167956717675 0.05483837425708768
v -0.09884824095334888 0.3398803697668311 0.05483837425708771
vt 0.6875 0.875
vt 0.75 0.875
vt 0.6875 0.78125
vt 0.75 0.78125
vt 0.3125 0.3125
vt 0.375 0.3125
vt 0.3125 0.21875
vt 0.375 0.21875
vt 0.78125 0.625
vt 0.6875 0.625
vt 0.78125 0.6875
vt 0.6875 0.6875
vt 0.78125 0.625
vt 0.6875 0.625
vt 0.78125 0.5625
vt 0.6875 0.5625
vt 0.125 0.375
vt 0.21875 0.375
vt 0.125 0.28125
vt 0.21875 0.28125
vt 0.625 1
vt 0.71875 1
vt 0.625 0.90625
vt 0.71875 0.90625
vn 0.92387952681676 -0.382683446112893 -8.497279460348684e-17
vn 0.92387952681676 -0.382683446112893 -8.497279460348684e-17
vn 0.92387952681676 -0.382683446112893 -8.497279460348684e-17
vn 0.92387952681676 -0.382683446112893 -8.497279460348684e-17
vn -0.92387952681676 0.382683446112893 8.497279460348684e-17
vn -0.92387952681676 0.382683446112893 8.497279460348684e-17
vn -0.92387952681676 0.382683446112893 8.497279460348684e-17
vn -0.92387952681676 0.382683446112893 8.497279460348684e-17
vn 0.3826834461128929 0.9238795268167601 2.0514246453035237e-16
vn 0.3826834461128929 0.9238795268167601 2.0514246453035237e-16
vn 0.3826834461128929 0.9238795268167601 2.0514246453035237e-16
vn 0.3826834461128929 0.9238795268167601 2.0514246453035237e-16
vn -0.3826834461128929 -0.9238795268167601 -2.0514246453035237e-16
vn -0.3826834461128929 -0.9238795268167601 -2.0514246453035237e-16
vn -0.3826834461128929 -0.9238795268167601 -2.0514246453035237e-16
vn -0.3826834461128929 -0.9238795268167601 -2.0514246453035237e-16
vn 0 -2.220446049250313e-16 1
vn 0 -2.220446049250313e-16 1
vn 0 -2.220446049250313e-16 1
vn 0 -2.220446049250313e-16 1
vn 0 2.220446049250313e-16 -1
vn 0 2.220446049250313e-16 -1
vn 0 2.220446049250313e-16 -1
vn 0 2.220446049250313e-16 -1
f 217/217/217 219/219/219 218/218/218
f 219/219/219 220/220/220 218/218/218
f 221/221/221 223/223/223 222/222/222
f 223/223/223 224/224/224 222/222/222
f 225/225/225 227/227/227 226/226/226
f 227/227/227 228/228/228 226/226/226
f 229/229/229 231/231/231 230/230/230
f 231/231/231 232/232/232 230/230/230
f 233/233/233 235/235/235 234/234/234
f 235/235/235 236/236/236 234/234/234
f 237/237/237 239/239/239 238/238/238
f 239/239/239 240/240/240 238/238/238
o Object_25
usemtl material_0
v 0.38053444825759863 0.7914145456360282 0.2741918712854386
v 0.38053444825759863 0.7914145456360282 0.054838374257087805
v 0.2756057555562493 0.5380942832962098 0.27419187128543854
v 0.2756057555562493 0.5380942832962099 0.05483837425708775
v 0.17787824321744428 0.8753574977957518 0.05483837425708782
v 0.17787824321744428 0.8753574977957518 0.2741918712854386
v 0.07294955051609497 0.6220372354559334 0.05483837425708776
v 0.07294955051609497 0.6220372354559334 0.27419187128543854
v 0.17787824321744428 0.8753574977957518 0.05483837425708782
v 0.38053444825759863 0.7914145456360282 0.054838374257087805
v 0.17787824321744428 0.8753574977957518 0.2741918712854386
v 0.38053444825759863 0.7914145456360282 0.2741918712854386
v 0.07294955051609497 0.6220372354559334 0.27419187128543854
v 0.2756057555562493 0.5380942832962098 0.27419187128543854
v 0.07294955051609497 0.6220372354559334 0.05483837425708776
v 0.2756057555562493 0.5380942832962099 0.05483837425708775
v 0.17787824321744428 0.8753574977957518 0.2741918712854386
v 0.38053444825759863 0.7914145456360282 0.2741918712854386
v 0.07294955051609497 0.6220372354559334 0.27419187128543854
v 0.2756057555562493 0.5380942832962098 0.27419187128543854
v 0.38053444825759863 0.7914145456360282 0.054838374257087805
v 0.17787824321744428 0.8753574977957518 0.05483837425708782
v 0.2756057555562493 0.5380942832962099 0.05483837425708775
v 0.07294955051609497 0.6220372354559334 0.05483837425708776
vt 0.6875 0.5625
vt 0.75 0.5625
vt 0.6875 0.46875
vt 0.75 0.46875
vt 0.625 0.3125
vt 0.6875 0.3125
vt 0.625 0.21875
vt 0.6875 0.21875
vt 0.8125 0.875
vt 0.75 0.875
vt 0.8125 0.9375
vt 0.75 0.9375
vt 0.1875 0.25
vt 0.125 0.25
vt 0.1875 0.1875
vt 0.125 0.1875
vt 0.6875 0.4375
vt 0.75 0.4375
vt 0.6875 0.34375
vt 0.75 0.34375
vt 0.375 0.3125
vt 0.4375 0.3125
vt 0.375 0.21875
vt 0.4375 0.21875
vn 0.92387952681676 -0.382683446112893 -8.497279460348684e-17
vn 0.92387952681676 -0.382683446112893 -8.497279460348684e-17
vn 0.92387952681676 -0.382683446112893 -8.497279460348684e-17
vn 0.92387952681676 -0.382683446112893 -8.497279460348684e-17
vn -0.92387952681676 0.382683446112893 8.497279460348684e-17
vn -0.92387952681676 0.382683446112893 8.497279460348684e-17
vn -0.92387952681676 0.382683446112893 8.497279460348684e-17
vn -0.92387952681676 0.382683446112893 8.497279460348684e-17
vn 0.3826834461128929 0.9238795268167601 2.0514246453035237e-16
vn 0.3826834461128929 0.9238795268167601 2.0514246453035237e-16
vn 0.3826834461128929 0.9238795268167601 2.0514246453035237e-16
vn 0.3826834461128929 0.9238795268167601 2.0514246453035237e-16
vn -0.3826834461128929 -0.9238795268167601 -2.0514246453035237e-16
vn -0.3826834461128929 -0.9238795268167601 -2.0514246453035237e-16
vn -0.3826834461128929 -0.9238795268167601 -2.0514246453035237e-16
vn -0.3826834461128929 -0.9238795268167601 -2.0514246453035237e-16
vn 0 -2.220446049250313e-16 1
vn 0 -2.220446049250313e-16 1
vn 0 -2.220446049250313e-16 1
vn 0 -2.220446049250313e-16 1
vn 0 2.220446049250313e-16 -1
vn 0 2.220446049250313e-16 -1
vn 0 2.220446049250313e-16 -1
vn 0 2.220446049250313e-16 -1
f 241/241/241 243/243/243 242/242/242
f 243/243/243 244/244/244 242/242/242
f 245/245/245 247/247/247 246/246/246
f 247/247/247 248/248/248 246/246/246
f 249/249/249 251/251/251 250/250/250
f 251/251/251 252/252/252 250/250/250
f 253/253/253 255/255/255 254/254/254
f 255/255/255 256/256/256 254/254/254
f 257/257/257 259/259/259 258/258/258
f 259/259/259 260/260/260 258/258/258
f 261/261/261 263/263/263 262/262/262
f 263/263/263 264/264/264 262/262/262
o Object_27
usemtl material_0
v 0.4855649434717795 1.0454121244895733 0.21935349702835105
v 0.4855649434717795 1.0454121244895733 0.10967674851417566
v 0.3806362532721251 0.7920918681893805 0.219353497028351
v 0.3806362532721251 0.7920918681893805 0.10967674851417561
v 0.3335727957312893 1.108369336107671 0.10967674851417569
v 0.3335727957312893 1.108369336107671 0.21935349702835108
v 0.2286441055316349 0.8550490798074781 0.10967674851417564
v 0.2286441055316349 0.8550490798074781 0.21935349702835102
v 0.3335727957312893 1.108369336107671 0.10967674851417569
v 0.4855649434717795 1.0454121244895733 0.10967674851417566
v 0.3335727957312893 1.108369336107671 0.21935349702835108
v 0.4855649434717795 1.0454121244895733 0.21935349702835105
v 0.2286441055316349 0.8550490798074781 0.21935349702835102
v 0.3806362532721251 0.7920918681893805 0.219353497028351
v 0.2286441055316349 0.8550490798074781 0.10967674851417564
v 0.3806362532721251 0.7920918681893805 0.10967674851417561
v 0.3335727957312893 1.108369336107671 0.21935349702835108
v 0.4855649434717795 1.0454121244895733 0.21935349702835105
v 0.2286441055316349 0.8550490798074781 0.21935349702835102
v 0.3806362532721251 0.7920918681893805 0.219353497028351
v 0.4855649434717795 1.0454121244895733 0.10967674851417566
v 0.3335727957312893 1.108369336107671 0.10967674851417569
v 0.3806362532721251 0.7920918681893805 0.10967674851417561
v 0.2286441055316349 0.8550490798074781 0.10967674851417564
vt 0.25 0.25
vt 0.28125 0.25
vt 0.25 0.15625
vt 0.28125 0.15625
vt 0.4375 0.25
vt 0.46875 0.25
vt 0.4375 0.15625
vt 0.46875 0.15625
vt 0.125 0.15625
vt 0.0625 0.15625
vt 0.125 0.1875
vt 0.0625 0.1875
vt 0.875 0.9375
vt 0.8125 0.9375
vt 0.875 0.90625
vt 0.8125 0.90625
vt 0 0.25
vt 0.0625 0.25
vt 0 0.15625
vt 0.0625 0.15625
vt 0.6875 0.3125
vt 0.75 0.3125
vt 0.6875 0.21875
vt 0.75 0.21875
vn 0.92387952681676 -0.382683446112893 -8.497279460348684e-17
vn 0.92387952681676 -0.382683446112893 -8.497279460348684e-17
vn 0.92387952681676 -0.382683446112893 -8.497279460348684e-17
vn 0.92387952681676 -0.382683446112893 -8.497279460348684e-17
vn -0.92387952681676 0.382683446112893 8.497279460348684e-17
vn -0.92387952681676 0.382683446112893 8.497279460348684e-17
vn -0.92387952681676 0.382683446112893 8.497279460348684e-17
vn -0.92387952681676 0.382683446112893 8.497279460348684e-17
vn 0.3826834461128929 0.9238795268167601 2.0514246453035237e-16
vn 0.3826834461128929 0.9238795268167601 2.0514246453035237e-16
vn 0.3826834461128929 0.9238795268167601 2.0514246453035237e-16
vn 0.3826834461128929 0.9238795268167601 2.0514246453035237e-16
vn -0.3826834461128929 -0.9238795268167601 -2.0514246453035237e-16
vn -0.3826834461128929 -0.9238795268167601 -2.0514246453035237e-16
vn -0.3826834461128929 -0.9238795268167601 -2.0514246453035237e-16
vn -0.3826834461128929 -0.9238795268167601 -2.0514246453035237e-16
vn 0 -2.220446049250313e-16 1
vn 0 -2.220446049250313e-16 1
vn 0 -2.220446049250313e-16 1
vn 0 -2.220446049250313e-16 1
vn 0 2.220446049250313e-16 -1
vn 0 2.220446049250313e-16 -1
vn 0 2.220446049250313e-16 -1
vn 0 2.220446049250313e-16 -1
f 265/265/265 267/267/267 266/266/266
f 267/267/267 268/268/268 266/266/266
f 269/269/269 271/271/271 270/270/270
f 271/271/271 272/272/272 270/270/270
f 273/273/273 275/275/275 274/274/274
f 275/275/275 276/276/276 274/274/274
f 277/277/277 279/279/279 278/278/278
f 279/279/279 280/280/280 278/278/278
f 281/281/281 283/283/283 282/282/282
f 283/283/283 284/284/284 282/282/282
f 285/285/285 287/287/287 286/286/286
f 287/287/287 288/288/288 286/286/286
o Object_29
usemtl material_0
v 0.46722286917750466 1.2429665325466384 0.21935349702835105
v 0.46722286917750466 1.2429665325466384 0.10967674851417566
v 0.46722286917750466 1.0236130355182875 0.219353497028351
v 0.46722286917750466 1.0236130355182875 0.10967674851417562
v 0.35754612066332925 1.2429665325466384 0.10967674851417566
v 0.35754612066332925 1.2429665325466384 0.21935349702835105
v 0.35754612066332925 1.0236130355182875 0.10967674851417562
v 0.35754612066332925 1.0236130355182875 0.219353497028351
v 0.35754612066332925 1.2429665325466384 0.10967674851417566
v 0.46722286917750466 1.2429665325466384 0.10967674851417566
v 0.35754612066332925 1.2429665325466384 0.21935349702835105
v 0.46722286917750466 1.2429665325466384 0.21935349702835105
v 0.35754612066332925 1.0236130355182875 0.219353497028351
v 0.46722286917750466 1.0236130355182875 0.219353497028351
v 0.35754612066332925 1.0236130355182875 0.10967674851417562
v 0.46722286917750466 1.0236130355182875 0.10967674851417562
v 0.35754612066332925 1.2429665325466384 0.21935349702835105
v 0.46722286917750466 1.2429665325466384 0.21935349702835105
v 0.35754612066332925 1.0236130355182875 0.219353497028351
v 0.46722286917750466 1.0236130355182875 0.219353497028351
v 0.46722286917750466 1.2429665325466384 0.10967674851417566
v 0.35754612066332925 1.2429665325466384 0.10967674851417566
v 0.46722286917750466 1.0236130355182875 0.10967674851417562
v 0.35754612066332925 1.0236130355182875 0.10967674851417562
vt 0.8125 0.875
vt 0.84375 0.875
vt 0.8125 0.8125
vt 0.84375 0.8125
vt 0.8125 0.75
vt 0.84375 0.75
vt 0.8125 0.6875
vt 0.84375 0.6875
vt 0.84375 0.40625
vt 0.8125 0.40625
vt 0.84375 0.4375
vt 0.8125 0.4375
vt 0.65625 0.1875
vt 0.625 0.1875
vt 0.65625 0.15625
vt 0.625 0.15625
vt 0.8125 0.8125
vt 0.84375 0.8125
vt 0.8125 0.75
vt 0.84375 0.75
vt 0.125 0.1875
vt 0.15625 0.1875
vt 0.125 0.125
vt 0.15625 0.125
vn 1 0 0
vn 1 0 0
vn 1 0 0
vn 1 0 0
vn -1 0 0
vn -1 0 0
vn -1 0 0
vn -1 0 0
vn 0 1 2.220446049250313e-16
vn 0 1 2.220446049250313e-16
vn 0 1 2.220446049250313e-16
vn 0 1 2.220446049250313e-16
vn 0 -1 -2.220446049250313e-16
vn 0 -1 -2.220446049250313e-16
vn 0 -1 -2.220446049250313e-16
vn 0 -1 -2.220446049250313e-16
vn 0 -2.220446049250313e-16 1
vn 0 -2.220446049250313e-16 1
vn 0 -2.220446049250313e-16 1
vn 0 -2.220446049250313e-16 1
vn 0 2.220446049250313e-16 -1
vn 0 2.220446049250313e-16 -1
vn 0 2.220446049250313e-16 -1
vn 0 2.220446049250313e-16 -1
f 289/289/289 291/291/291 290/290/290
f 291/291/291 292/292/292 290/290/290
f 293/293/293 295/295/295 294/294/294
f 295/295/295 296/296/296 294/294/294
f 297/297/297 299/299/299 298/298/298
f 299/299/299 300/300/300 298/298/298
f 301/301/301 303/303/303 302/302/302
f 303/303/303 304/304/304 302/302/302
f 305/305/305 307/307/307 306/306/306
f 307/307/307 308/308/308 306/306/306
f 309/309/309 311/311/311 310/310/310
f 311/311/311 312/312/312 310/310/310
o Object_31
usemtl material_0
v 0.3808082503243584 1.39395534861283 0.16451512277126334
v 0.3808082503243584 1.39395534861283 0.10967674851417566
v 0.443765464444151 1.2419631948327143 0.16451512277126332
v 0.443765464444151 1.2419631948327143 0.10967674851417564
v 0.3301441975544134 1.3729696099474753 0.10967674851417566
v 0.3301441975544134 1.3729696099474753 0.16451512277126334
v 0.39310141167420604 1.2209774561673596 0.10967674851417562
v 0.39310141167420604 1.2209774561673596 0.16451512277126332
v 0.3301441975544134 1.3729696099474753 0.10967674851417566
v 0.3808082503243584 1.39395534861283 0.10967674851417566
v 0.3301441975544134 1.3729696099474753 0.16451512277126334
v 0.3808082503243584 1.39395534861283 0.16451512277126334
v 0.39310141167420604 1.2209774561673596 0.16451512277126332
v 0.443765464444151 1.2419631948327143 0.16451512277126332
v 0.39310141167420604 1.2209774561673596 0.10967674851417562
v 0.443765464444151 1.2419631948327143 0.10967674851417564
v 0.3301441975544134 1.3729696099474753 0.16451512277126334
v 0.3808082503243584 1.39395534861283 0.16451512277126334
v 0.39310141167420604 1.2209774561673596 0.16451512277126332
v 0.443765464444151 1.2419631948327143 0.16451512277126332
v 0.3808082503243584 1.39395534861283 0.10967674851417566
v 0.3301441975544134 1.3729696099474753 0.10967674851417566
v 0.443765464444151 1.2419631948327143 0.10967674851417564
v 0.39310141167420604 1.2209774561673596 0.10967674851417562
vt 0.8125 0.6875
vt 0.84375 0.6875
vt 0.8125 0.625
vt 0.84375 0.625
vt 0.8125 0.625
vt 0.84375 0.625
vt 0.8125 0.5625
vt 0.84375 0.5625
vt 0.84375 0.34375
vt 0.8125 0.34375
vt 0.84375 0.375
vt 0.8125 0.375
vt 0.71875 0.1875
vt 0.6875 0.1875
vt 0.71875 0.15625
vt 0.6875 0.15625
vt 0.375 0.1875
vt 0.40625 0.1875
vt 0.375 0.125
vt 0.40625 0.125
vt 0.3125 0.1875
vt 0.34375 0.1875
vt 0.3125 0.125
vt 0.34375 0.125
vn 0.92387952681676 0.382683446112893 8.497279460348684e-17
vn 0.92387952681676 0.382683446112893 8.497279460348684e-17
vn 0.92387952681676 0.382683446112893 8.497279460348684e-17
vn 0.92387952681676 0.382683446112893 8.497279460348684e-17
vn -0.92387952681676 -0.382683446112893 -8.497279460348684e-17
vn -0.92387952681676 -0.382683446112893 -8.497279460348684e-17
vn -0.92387952681676 -0.382683446112893 -8.497279460348684e-17
vn -0.92387952681676 -0.382683446112893 -8.497279460348684e-17
vn -0.3826834461128929 0.9238795268167601 2.0514246453035237e-16
vn -0.3826834461128929 0.9238795268167601 2.0514246453035237e-16
vn -0.3826834461128929 0.9238795268167601 2.0514246453035237e-16
vn -0.3826834461128929 0.9238795268167601 2.0514246453035237e-16
vn 0.3826834461128929 -0.9238795268167601 -2.0514246453035237e-16
vn 0.3826834461128929 -0.9238795268167601 -2.0514246453035237e-16
vn 0.3826834461128929 -0.9238795268167601 -2.0514246453035237e-16
vn 0.3826834461128929 -0.9238795268167601 -2.0514246453035237e-16
vn 0 -2.220446049250313e-16 1
vn 0 -2.220446049250313e-16 1
vn 0 -2.220446049250313e-16 1
vn 0 -2.220446049250313e-16 1
vn 0 2.220446049250313e-16 -1
vn 0 2.220446049250313e-16 -1
vn 0 2.220446049250313e-16 -1
vn 0 2.220446049250313e-16 -1
f 313/313/313 315/315/315 314/314/314
f 315/315/315 316/316/316 314/314/314
f 317/317/317 319/319/319 318/318/318
f 319/319/319 320/320/320 318/318/318
f 321/321/321 323/323/323 322/322/322
f 323/323/323 324/324/324 322/322/322
f 325/325/325 327/327/327 326/326/326
f 327/327/327 328/328/328 326/326/326
f 329/329/329 331/331/331 330/330/330
f 331/331/331 332/332/332 330/330/330
f 333/333/333 335/335/335 334/334/334
f 335/335/335 336/336/336 334/334/334
